<svg xmlns="http://www.w3.org/2000/svg" xmlns:xlink="http://www.w3.org/1999/xlink" width="512" height="512" viewBox="0 0 512 512">
  <defs>
    <clipPath id="clip-configuracion">
      <rect width="512" height="512"/>
    </clipPath>
  </defs>
  <g id="configuracion" clip-path="url(#clip-configuracion)">
    <path id="path4705" d="M221.11,304.663c-1.174-1.509-6.373-4.158-23.221-11.82-33.76-15.357-49.683-22.281-50.152-21.779-.232.251,1.228,1.459,3.241,2.7s6.559,4.074,10.114,6.287c3.554,2.23,10.037,6.22,14.421,8.886,4.384,2.649,9.332,5.767,10.992,6.941,1.675,1.174,3.163,2.213,3.32,2.33.157.1.063.8-.2,1.559-.438,1.224-.611,1.241-1.8.134-1.989-1.878-6.342-4.041-18.007-8.986-5.841-2.481-13.529-5.935-17.072-7.7-3.55-1.744-7.8-3.655-9.455-4.242a58.436,58.436,0,0,1-6.447-2.867c-4.575-2.431-7.2-3.269-6.53-2.1a1.969,1.969,0,0,0,1.5.905c.539,0,2.311,1.023,3.94,2.263a132.563,132.563,0,0,0,12.824,8.249c4.344,2.532,6.45,4.292,6.45,5.415,0,1.677-2.87,1.358-5.43-.587-1.237-.939-5.388-2.783-9.223-4.091s-9.705-3.4-13.043-4.678C119,278.324,113.8,276.53,112.95,276.53c-.675,0,4.687,3.873,7.167,5.164a77.957,77.957,0,0,1,7.427,4.845c2.889,2,3.663,3.806,1.624,3.806-1.993,0-34.092-13.429-34.092-14.268,0-2,.327-2.146,31.87-14.737,2.714-1.09,6.343-2.465,8.066-3.068a32.587,32.587,0,0,0,4.553-1.945,77.544,77.544,0,0,1,9.387-4.091c1.461-.537,8.539-3.336,15.71-6.22,7.187-2.867,13.513-5.231,14.046-5.231a9.765,9.765,0,0,0,3.132-1.207,28.712,28.712,0,0,1,5.308-2.062c1.738-.486,4.87-1.526,6.952-2.33s5-1.928,6.451-2.481c8.518-3.3,26.4-9.959,27.7-10.328A50.382,50.382,0,0,0,233.762,220a23.708,23.708,0,0,1,4.932-1.962,25.266,25.266,0,0,0,4.932-1.626,22.259,22.259,0,0,1,5.7-1.626c2.521,0,14.562,5.834,41.135,19.9,32.115,16.984,40.54,22.416,37.69,24.293-.673.469-5-.872-11.509-3.554-2.286-.939-7.406-2.951-11.384-4.46-8.08-3.068-20.137-8.2-22.251-9.456a65.814,65.814,0,0,0-6.451-2.75c-17.271-6.589-24.678-9.338-25.085-9.288-.548.05,2.349,1.693,16.755,9.456,5.966,3.219,11.712,6.4,12.762,7.058,2.85,1.794,18.132,9.422,18.884,9.422.971,0,7.579,4.074,8.127,5.013.955,1.677-.955,2.4-3.179,1.207a61.708,61.708,0,0,0-7.14-2.817c-8-2.682-26.056-9.523-27.7-10.5-2.177-1.308-27.167-11.619-28.076-11.585-.423.017,1.628,1.542,4.557,3.387,12.918,8.2,22.423,14.15,27.731,17.386,7.109,4.359,10.35,7.427,9.176,8.668-.611.671-1.19.553-2.177-.369-.736-.721-5.449-3.118-10.46-5.348-5-2.23-12.683-5.734-17.068-7.8s-8.643-4.074-9.489-4.476c-2.662-1.257-12.84-5.6-14.218-6.069-2.975-1.023-.924.989,6.075,5.952,4.071,2.884,10.46,7.109,14.218,9.389,13.122,8,14.938,9.506,13.419,11.149-.564.587-1.848.335-4.259-.889a17.527,17.527,0,0,0-4.541-1.744,1.512,1.512,0,0,1-1.331-.6c-.141-.335-2.991-1.827-6.326-3.336-3.335-1.492-8.111-3.739-10.616-5a61.922,61.922,0,0,0-6.451-2.833,50.75,50.75,0,0,1-6.075-2.85c-2.286-1.241-5.026-2.649-6.06-3.118-1.049-.453-4.29-1.928-7.2-3.269-2.928-1.341-5.465-2.247-5.668-2.045-.2.218.125.721.752,1.107.611.386,3.335,2.2,6.044,4.024,2.709,1.811,10.288,6.706,16.833,10.864,8.722,5.549,11.728,7.846,11.274,8.634-.5.872-1.738.637-6.216-1.123-12.182-4.828-24.474-10.059-29.908-12.742a16.774,16.774,0,0,0-3.9-1.509,18.589,18.589,0,0,1-4.134-1.61c-7.861-3.823-5.778-.151,2.725,4.778,2.944,1.693,7.751,4.493,10.663,6.2,2.928,1.71,9.583,6.22,14.8,10.009,5.214,3.806,11.54,8.366,14.046,10.143,5.825,4.158,7.25,5.466,6.8,6.27-.752,1.291-10.084-2.867-31.082-13.865-5.841-3.051-14.891-7.628-20.105-10.177-5.214-2.532-10.851-5.281-12.527-6.1-7.594-3.739-12.026-5.65-13.028-5.65-2.6,0-.016,1.794,14.547,10.16,2.928,1.677,7.751,4.46,10.726,6.187,2.959,1.727,6.075,3.152,6.89,3.152a4.638,4.638,0,0,1,2.9,1.643c1.707,2.029,11.305,8.031,26.384,16.5,9.458,5.315,14.14,8.785,14.171,10.5.016.788-.329,1.425-.752,1.425a121.169,121.169,0,0,1-11.024-5.281c-5.637-2.917-10.679-5.281-11.18-5.281-.517,0-4.854-1.962-9.661-4.393-4.791-2.414-10.945-5.382-13.654-6.606-5.387-2.414-11.164-5.164-17.068-8.131-12.2-6.1-26.615-12.557-28.033-12.557-1.2,0,18.435,11.937,29.85,18.14,1.5.822,4.948,2.884,7.673,4.577,2.709,1.693,9.364,5.566,14.782,8.6,13.482,7.528,18.915,11.116,19.2,12.658a1.559,1.559,0,0,1-2.8,1.207Zm-170.771-.872a33.96,33.96,0,0,0-5.974-4.158,71.018,71.018,0,0,1-7.823-5.315,11.757,11.757,0,0,0-3.548-2.347c-1,0-5.448-5.734-5.448-7.025a1.684,1.684,0,0,0-.949-1.375c-.55-.235-.371-.436.424-.469.755-.034,1.187-.386.958-.788-.229-.386.691-1.157,2.042-1.693s3.652-1.492,5.112-2.112c1.461-.6,5.495-1.844,8.966-2.75a68.308,68.308,0,0,0,9.771-3.269,17.413,17.413,0,0,1,4.738-1.643,5.228,5.228,0,0,0,2.663-1.09c1.259-.972,1.3-1.475.456-5.248-.763-3.4-1.982-5.382-6.7-10.9-3.176-3.705-6.259-6.857-6.852-7.008-.963-.251-11.5,3.588-15.848,5.767-.919.469-4.477,3.906-7.906,7.662-3.857,4.225-6.644,6.656-7.306,6.388a6.292,6.292,0,0,0-2.048-.453c-.7,0-1.111-2.33-1.454-8.316-1.981-34.571-1.957-32.576-.41-34.3a6.578,6.578,0,0,1,3.908-1.744c5.466-.3,31.873-8.366,33.647-10.261.67-.721-4.214-1.593-14.86-2.649-2.714-.268-7.665-.822-11-1.224-3.338-.419-9.57-1.174-13.848-1.677l-7.778-.939v-5.516l9.3.436c5.112.235,18.541.738,29.842,1.09,11.3.369,20.948.922,21.436,1.241.554.369.814,2.347.691,5.214l-.2,4.627-5.628-.218c-3.1-.117-5.471-.05-5.282.151a42.078,42.078,0,0,0,6.528,4.527,12.533,12.533,0,0,1,2.812,1.878c1.292,1.039,4.145,3.051,6.34,4.476l3.993,2.582-.479-3.454a34.993,34.993,0,0,0-1.76-6.689c-1.376-3.487-1.426-2.934,1.553-17.47,2.85-13.915,3.235-14.8,7.7-17.637,4.456-2.85,13.6-8.165,18.77-10.914,3.786-2.012,8.969-5.456,10.438-6.941a8.019,8.019,0,0,1,2.656-1.536,26.817,26.817,0,0,0,5.119-3.093,81.391,81.391,0,0,1,6.829-4.456,35.056,35.056,0,0,0,4.553-2.971c1.16-1.058,1.9-1.529,12.52-7.967,3.338-2.024,7.436-4.74,9.105-6.034a85.634,85.634,0,0,1,7.557-5c2.49-1.455,5.387-3.3,6.451-4.109,5.152-3.91,16.3-10.47,17.036-10.022.454.278.579.213.282-.146-.438-.521,5.5-5.3,6.577-5.3.642,0,17.741-11.033,21.311-13.748,2.1-1.6,4.478-3.3,5.261-3.779a4.417,4.417,0,0,0,1.722-1.725c.141-.471-3.429-3.529-7.923-6.8-4.51-3.266-8.362-6.183-8.581-6.48a9.385,9.385,0,0,0-2.27-1.581c-1.049-.572-5.136-3.514-9.1-6.535-11.744-8.951-11.775-8.963-19.949-8.408-6.717.456-7.172.384-9.3-1.529-4.35-3.891-17.948-13.743-20.058-14.531-3.688-1.376-3.446-4.165.933-10.774C147.574,24.359,147.917,24,150.863,24.29c2.112.21,17.78,6.383,25.782,10.163a13.747,13.747,0,0,0,3.414.952c1.628.2,1.957.766,2.411,4.1a25.257,25.257,0,0,0,2.725,7.712c2.349,4.1,1.488,3.586,21.045,12.628,2.928,1.35,10.789,5.251,17.459,8.669s13.576,6.706,15.345,7.308c3.022,1.034,3.367.981,6.075-.942a24.461,24.461,0,0,1,4.572-2.615c.94-.317,1.707-.835,1.707-1.15s1.206-1.271,2.693-2.124c3.758-2.166,3.382-4.684-.8-5.432-3.038-.543-12.135-.285-18.587.528-1.879.236-3.8.149-4.275-.194-1.441-1.056-1.91-6.488-2-22.669-.078-13.642.078-15.711,1.206-16.928a50.381,50.381,0,0,0,3.288-4.186c2.208-3.092,19.072-16.294,20.34-15.911,1.206.369,8.048,3.8,19.886,9.987,5.9,3.088,11.337,5.615,12.057,5.615,1.425,0,6.4-3.055,6.4-3.93,0-.3.971-1.006,2.145-1.566,2.772-1.312,6.717-.494,9.489,1.965a8.2,8.2,0,0,0,2.912,1.906c.955,0,10.053,4.206,16.864,7.8,2.866,1.519,5.841,2.761,6.592,2.761a2.285,2.285,0,0,1,1.832.811,3.041,3.041,0,0,0,2.317.813c1.362,0,2.208.808,3.367,3.222a11.273,11.273,0,0,0,3.1,4.123c3.163,1.814,9.693,3.09,20.325,3.973l10.883.905,7.281,7.09c12.605,12.267,11.744,11.109,11.149,15.02-.282,1.895-1.5,6.917-2.709,11.163A83.662,83.662,0,0,0,384.6,87.641c-.376,4.508-.172,4.274-8.91,9.992-3.21,2.1-7.954,5.373-10.522,7.273-2.709,1.993-5.559,3.452-6.749,3.452-1.206,0-4.431-1.66-7.688-3.95C331.648,91,327.905,88.617,323.333,86.97c-.924-.332-3.21,1.744-8.158,7.387-3.774,4.317-6.874,8.138-6.874,8.488,0,1.536-3.711.332-11.791-3.831-4.776-2.456-8.894-4.468-9.16-4.468-.971,0-9.348,6.946-9.379,7.781,0,.481,1.206,1.943,2.709,3.249,4.525,3.937,7.219,6.322,9.818,8.673a12.174,12.174,0,0,0,2.959,2.233,14.971,14.971,0,0,1,3.32,2.3c7.406,6.062,11.337,9.08,11.838,9.08a21.375,21.375,0,0,1,4.149,3.249c1.989,1.787,3.962,3.251,4.384,3.251s2.631,1.4,4.917,3.113a32.686,32.686,0,0,0,5.637,3.588c.814.262,4.885,1.792,9.066,3.4,6.2,2.394,8.221,2.838,11.117,2.438,3.93-.543,5.152-.032,10.616,4.443,1.957,1.606,6.06,4.5,9.129,6.445,3.053,1.938,8.456,5.363,11.994,7.62,3.554,2.247,6.874,4.091,7.375,4.124.5.017,1.127,1.039,1.378,2.28.517,2.515,3.8,6.421,5.418,6.421a6.973,6.973,0,0,1,2.928,1.308,3.97,3.97,0,0,0,3.053.822c.673-.285.986-.151.72.319-.251.436.251.8,1.143.8.877,0,1.394.352,1.143.8-.626,1.073.611,1.056,1.6-.017.532-.57,1.347-.3,2.552.8,1.644,1.542,3.821,2.079,7.078,1.777.752-.067,1.174.218.94.637-.251.419.157.771.893.771a67.8,67.8,0,0,1,12.073,2.532c5.59,1.777,21.155,4.661,21.405,3.957s12.433,7.947,15.611,11.065a68.444,68.444,0,0,0,5.872,4.728,59.508,59.508,0,0,1,7.359,6.539l3.147,3.42-.767,6.472c-1.425,11.887-5.465,28.4-7.406,30.262a47.472,47.472,0,0,0-4.04,5.046,163.7,163.7,0,0,1-10.46,13.178c-2.975,3.471-3.68,3.89-6.53,3.89-4.259,0-7.313-1.174-13.67-5.281-2.912-1.878-7.532-4.778-10.241-6.421-7.281-4.443-10.945-7.41-13.779-11.183-7.923-10.529-14-18.207-18.947-23.941-10.413-12.054-12.809-14.988-12.809-15.776a.778.778,0,0,0-.783-.771c-.438,0-2.646-1.459-4.9-3.253-4.572-3.6-6.122-3.99-6.811-1.693-.986,3.32-2.474,3.672-5.214,1.174-1.394-1.274-6.029-4.879-10.3-8.014-4.275-3.118-9.3-7.058-11.164-8.735-1.879-1.677-3.9-3.035-4.494-3.035s-1.1-.285-1.1-.62-1.268-1.526-2.8-2.632a49.376,49.376,0,0,1-5.762-5.214c-2.6-2.817-2.85-3.4-2.114-5.114,1.315-3.118.986-4.611-1.895-8.2-2.568-3.219-17.647-14.787-19.276-14.787a.76.76,0,0,1-.783-.718c0-.4-.6-.932-1.315-1.2a15.135,15.135,0,0,1-2.834-1.517q-8.878-6.151-10.068-5.709c-.532.186-.955-.151-.955-.746-.016-1.1-7.453-5.958-8.1-5.281-.188.2,1.065,1.412,2.772,2.689s3.836,2.961,4.713,3.742a5.516,5.516,0,0,0,2.552,1.422c.517,0,1.143.59,1.409,1.311a1.47,1.47,0,0,0,2.02.877c1.221-.344,1.378-.208.7.649-1.112,1.438.2,2.312,2.474,1.631,1.253-.379,1.409-.3.611.292-1.127.835-3.21,8.192-2.6,9.235a3.076,3.076,0,0,1-.423,2.119c-.548,1.118-1.957,1.656-5.261,2.025-3.821.424-11.274,2.084-12.151,2.7-.454.319-2.239,11.216-1.926,11.769.157.3,2.6.754,5.418,1.039,5.653.57,9.5-.251,19.7-4.191,5.073-1.962,6.295-2.2,6.639-1.257.219.637.72.939,1.112.671a.857.857,0,0,1,1.19.369c.266.453.11.822-.344.822-.6,0-.579.5.031,1.727.611,1.241.626,1.878.031,2.28-.532.352-.658,2.4-.391,5.784.251,2.884.454,5.415.47,5.65,0,.218-.016,2.615-.078,5.331l-.078,4.929-5.762,3.2c-3.163,1.744-8.409,4.661-11.65,6.455a100.314,100.314,0,0,0-9.035,5.583c-3.1,2.3-3.226,2.33-7.892,1.341a48.106,48.106,0,0,1-6.263-1.66c-.83-.369-5.449-1.978-10.241-3.571l-8.722-2.917-4.932,1.224c-2.725.671-9.724,2.85-15.564,4.829-13.435,4.56-44.908,14.62-53.818,17.2a44.969,44.969,0,0,0-7.594,2.666,10.623,10.623,0,0,1-3.461,1.274c-3.4.754-33.749,11.484-36.919,13.044a11.717,11.717,0,0,1-3.273,1.19c-1.007,0-5.9,1.559-15.2,4.845a92.126,92.126,0,0,1-9.192,2.783c-3.237.62-4.023,1.492-8.114,9.087a42.1,42.1,0,0,1-4.279,6.807c-1.326,1.174-1.668,5.331-.368,4.46a13.824,13.824,0,0,1,3.9-.855c2.7-.268,3.7.168,8.081,3.538,2.75,2.129,5.949,4.493,7.109,5.264,2.319,1.559,2.775,3.068.922,3.068-.653,0-4.784-1.643-9.181-3.655a77.409,77.409,0,0,0-8.808-3.655,5.1,5.1,0,0,1-2.283-1.425c-1.416-1.375-1.552-1.325-3.664,1.392-1.207,1.542-2.2,3.47-2.2,4.275a4.653,4.653,0,0,1-1.478,2.817c-.814.738-1.306,1.643-1.095,2.012s-.061.721-.608.771c-3.061.285-6.685,1.609-6.685,2.431,0,.386-.525.721-1.168.721-1.669,0-7.178,3.135-7.178,4.074,0,.436-.615.8-1.367.8a3.549,3.549,0,0,0-2.086.671c-.847.788-6.459,2.582-8.114,2.582a3.11,3.11,0,0,1-2.064-1.19ZM58.078,291.2c10.07-2.431,17-4.393,17.749-5.03.47-.4,1.282-2.465,1.805-4.577,1.281-5.164,4.469-15.408,5.83-18.71a27.953,27.953,0,0,0,1.5-5.315c.456-3,.556-3.068,12.392-7.36,4.383-1.593,10.87-4.024,14.417-5.415s12.6-4.678,20.109-7.327,14.683-5.315,15.936-5.935,10.225-3.94,19.933-7.394,17.835-6.606,18.054-7.008a2.528,2.528,0,0,1,1.926-.721c.83,0,6.357-1.777,12.292-3.957,5.919-2.18,13.341-4.778,16.473-5.784,3.132-.989,10.131-3.37,15.549-5.281,5.433-1.911,12.589-4.258,15.94-5.231,3.335-.972,6.984-2.146,8.1-2.6,1.691-.7,2.85-.419,7,1.693a31.962,31.962,0,0,0,5.48,2.448c.266-.067.7.251.955.687.72,1.241,11.7,7.444,13.184,7.461a6.155,6.155,0,0,0,2.662-.788c.72-.419,4.729-2.3,8.91-4.141,4.165-1.861,7.673-3.47,7.8-3.571.689-.671,1.863-12.457,1.331-13.379-.266-.453-1.973.235-3.993,1.61a19.272,19.272,0,0,1-4.2,2.4,14.6,14.6,0,0,0-3.633,2.565l-2.959,2.548-7.422-3.823c-4.087-2.112-8.534-4.426-9.88-5.13l-2.474-1.291.094-8.2c.063-4.51.313-10.755.579-13.884l.47-5.687,8.315-1.452a68.6,68.6,0,0,0,8.675-1.838c.611-.664-2.4-2.61-7.234-4.668l-4.651-1.983-6.7,2.939c-6.639,2.916-6.717,2.983-9.912,8.626-1.785,3.128-3.883,6.966-4.666,8.524-4.259,8.483-5.167,9.992-6.216,10.328-.626.2-3.351,1.207-6.06,2.263-4.071,1.559-14.312,5.046-27.7,9.406-7.219,2.347-22.141,7.477-24.537,8.433-2.85,1.14-9.818,3.823-18.9,7.26-5.011,1.895-17.245,6.036-27.891,9.422a69.853,69.853,0,0,0-6.83,2.481c-.835.419-5.786,2.247-11,4.057s-10.078,3.638-10.8,4.074a6.1,6.1,0,0,1-2.485.788,27.8,27.8,0,0,0-5.512,1.677c-2.389.939-7.417,2.615-11.174,3.722-3.756,1.123-7.154,2.381-7.55,2.783a4.52,4.52,0,0,1-2.729.754,6.4,6.4,0,0,0-3.691,1.559c-1.857,1.727-1.841,1.727-11.282-2.867a21.723,21.723,0,0,0-5.078-1.945,1.879,1.879,0,0,1-1.5-.738c-.644-1.123-16.7-8.2-18.583-8.2-2.377,0-22.767,10.713-23.157,12.172-.545,2.029-1.032,6.522-1.542,14.234l-.485,7.31,4.112-6.79,4.112-6.79,7.74-3.6c4.258-2,8.5-3.688,9.42-3.789.955-.084,3.424,1.241,5.728,3.1,10.125,8.115,12.823,10.126,15.84,11.786,3.841,2.1,4.408,3.823,3.545,10.8-.343,2.766-.662,7.41-.712,10.311-.089,5.2-.138,5.315-3.074,7.444-1.643,1.207-3.122,2.029-3.291,1.844-.168-.168-2.084.771-4.256,2.1-3.584,2.2-4.787,2.465-12.973,2.9-4.964.268-9.306.771-9.649,1.123-.727.738,3,2.012,5.07,1.727.781-.117,1.2.168.943.62-.258.436.639,1.039,2,1.341a26.118,26.118,0,0,1,4.749,1.593c4.992,2.314,5.241,2.347,9.664,1.291Zm34.474-44.446c-1.138-1.224-.33-3.068,2.869-6.539a59.209,59.209,0,0,0,5.122-6.421c2.806-4.409,5.762-3.32,4.2,1.559a4.768,4.768,0,0,0-.351,2.683c.208.218,2.695-2.364,5.526-5.734s5.6-6.136,6.158-6.136c1.188,0,1.4,4.51.252,5.281a1.951,1.951,0,0,0-.758,1.475c0,.52.769.034,1.707-1.09,3.642-4.376,10.43-9.908,11.584-9.439,1,.419.891,1.073-.75,4.544a31.936,31.936,0,0,0-1.918,4.594c0,.285,2.111-1.61,4.693-4.242s5.679-5.784,6.887-7.008c3.423-3.487,5.523-2.934,4.206,1.123a5.519,5.519,0,0,0-.445,2.766c.188.2,3.044-2.364,6.348-5.717,6.514-6.589,8.44-7.327,8.033-3.035-.376,4.074,1.8,3.353,6.764-2.247,4.212-4.761,6.764-6.136,6.764-3.655a6.866,6.866,0,0,1-.924,2.817c-2.74,4.711,3.241,1.324,9.254-5.248,1.848-2.012,3.977-3.672,4.729-3.672,1.55,0,1.66.654.626,3.6-.407,1.14-.548,2.079-.313,2.079a62.934,62.934,0,0,0,6.42-5.331c3.288-2.934,6.342-5.1,6.78-4.812.736.486.626,1.392-.611,5.281-.313.972-.188,1.023.642.2a3.642,3.642,0,0,1,2.208-1.023c.642,0,3.351-2.029,6-4.51,2.662-2.465,5.214-4.359,5.684-4.175.47.168.846,1.291.83,2.465-.016,1.19.11,2.163.282,2.163a68.086,68.086,0,0,0,5.449-4.879c2.819-2.682,5.527-4.879,6.013-4.879.6,0,.72.972.376,3.051l-.5,3.051,4.1-4.275c4.651-4.845,7.031-5.616,6.232-2.029l-.5,2.23,2.568-2.431c1.409-1.324,3.351-3.253,4.306-4.258a5.739,5.739,0,0,1,2.928-1.827c.971,0,1.1.57.673,3.035-1,5.784-1.973,6.974-7.626,9.271-8.064,3.269-27.011,10.5-29.579,11.266-7.422,2.23-16.16,5.248-25.805,8.919-2.083.788-7.031,2.615-10.992,4.074-11.806,4.292-31.724,11.786-39.843,14.988-4.173,1.66-9.466,3.688-11.761,4.527s-8.1,3-12.9,4.795c-8.78,3.3-10.7,3.755-11.634,2.766Zm371.606,10.361,5.23-5.549,1.456-13.932,1.456-13.915-4.024-3.923c-14.594-14.184-14.86-14.351-29.469-18.325-3.962-1.073-11.478-3.3-16.692-4.946-5.214-1.66-12.214-3.755-15.549-4.661-3.335-.922-6.592-2.112-7.219-2.649-1.8-1.526-14.907-10.177-15.424-10.177-.783,0-6.577,8.819-6.577,10.026a3.231,3.231,0,0,0,1.049,2.079c.579.52,1.472,3.856,1.989,7.41.517,3.571,1.206,6.488,1.535,6.488.814,0,1.8-13.161,1.159-15.341-.548-1.811.047-2.163,1.754-1.006.861.587,2.286,5.382,3.507,11.87,1.127,5.868,2.13,9.355,2.709,9.355.36,0,.767-4.309.877-9.556.188-7.83.423-9.54,1.362-9.54.814,0,1.879,3,3.789,10.764,2.177,8.8,2.912,10.764,4.024,10.764,1.19,0,1.331-.5.955-3.655-.235-2.012-.611-5.3-.846-7.31-.391-3.3-.282-3.655,1.127-3.655.861,0,1.566.352,1.566.771a75.864,75.864,0,0,0,3.414,8.433,69.456,69.456,0,0,1,3.414,8.567c0,1.324,8.377,22.3,9.285,23.254.893.939,1.127,2.28-3.147-18.526-1.738-8.4-2.928-15.626-2.678-16.078.548-.939,2.615.587,2.615,1.911a44.87,44.87,0,0,0,2.568,6.606c1.394,3.185,3.633,8.333,4.948,11.468,4.823,11.384,6.984,16.028,7.313,15.659.517-.537-1.456-11.451-3.507-19.482-.986-3.873-1.6-7.26-1.362-7.528.752-.788,2.944.469,2.944,1.693a6.905,6.905,0,0,0,.72,2.548c.407.788,1.754,3.89,3.006,6.907,1.394,3.32,2.756,5.482,3.461,5.482.626,0,1.159.369,1.159.8a.768.768,0,0,1-.689.822c-.376,0,.564,3.353,2.083,7.461,3.069,8.232,3.9,7.746,2.145-1.224-1.832-9.355-2.145-14.368-.893-14.368,1.613,0,4.463,4.711,6.075,10.043.8,2.615,1.863,4.929,2.38,5.147a1.086,1.086,0,0,1,.6,1.358,3.53,3.53,0,0,0,.846,2.565c1.315,1.76,1.331,2.381-.11-9.976-.407-3.538-.282-4.258.689-4.258.658,0,1.785,1.459,2.521,3.253,1.566,3.772,2.912,4.326,2.208.889-1.1-5.331,3.226-3.236,5.731,2.766,1.456,3.5,1.519,3-1.957,18.476-2,8.953-2.1,9.556-1.425,9.523.36-.017,3.022-2.532,5.9-5.583Zm-61.569-39.952c-.893-3.688-2.631-4.225-1.973-.6a30.478,30.478,0,0,0,1.268,4.728c.752,1.962.783,1.962,1.065.285a13.767,13.767,0,0,0-.36-4.409ZM94.07,208.278c.435-6.052.6-6.555,2.047-6.321,1.223.184,2.026,1.66,3.6,6.589a59.879,59.879,0,0,0,2.411,6.757c1.265,1.358,1.325-17.906.061-20.152a6.441,6.441,0,0,0-2.754-1.123,14.525,14.525,0,0,1-3.974-1.626,29.758,29.758,0,0,0-5.241-2.414l-3.713-1.341-1.737,2.314A105.017,105.017,0,0,0,78.7,202.376l-4.33,9.1,1.367,2.247c1.506,2.448,1.48,2.481,3.129-3.4,1.012-3.621,2.612-2.984,3.836,1.509.592,2.163,1.214,3.789,1.384,3.6a64.805,64.805,0,0,0,1.11-8c.968-9.255,1.3-10.529,2.731-10.529,1.542,0,2.389,2.85,2.934,9.841.258,3.3.665,7.075.908,8.383.706,3.823,1.751.7,2.3-6.857Zm25.583-25.651c.615-1.71,1.92-1.392,2.7.687a88.722,88.722,0,0,1,1.959,9.791c.7,4.393,1.4,7.846,1.55,7.679.307-.335.559-2.163,1.829-13.211,1.2-10.411,1.35-10.965,3.022-10.965,1.511,0,3.042,3.99,3.052,7.947a15.409,15.409,0,0,0,1.021,4.46,8.036,8.036,0,0,1,.7,3.638.761.761,0,0,0,.8,1.023c1.245,0,1.561-1.492,2.8-13.111,1.032-9.64,1.716-12.49,3-12.49,1.47,0,2,1.576,3.5,10.395.744,4.393,1.616,8.148,1.937,8.366.321.2.8-1.006,1.06-2.7,2.012-12.943,4.243-24.2,4.94-24.934,1.356-1.43,2.8,1.519,3.769,7.732.5,3.085,1.221,5.616,1.628,5.616s.517.352.266.8a2.6,2.6,0,0,0,.235,2.129c.877,1.693,1.66.453,1.957-3.135a15.308,15.308,0,0,1,.986-4.292,37.035,37.035,0,0,0,1.675-5.67c2.051-9.261,3.179-12.593,4.275-12.593,1.331,0,1.284-.169,1.55,6.5.36,9.416.564,11.444,1.143,11.813.689.469,2.725-8.847,3.9-17.822.8-6.217,1.628-8.215,3.022-7.3.329.221.611,1.5.611,2.843a11.29,11.29,0,0,0,.877,4.213,31.114,31.114,0,0,1,1.722,5.276c.454,1.928,1.174,3.5,1.582,3.5s1.942-5.782,3.414-12.846c2.349-11.308,2.85-12.839,4.165-12.839,1.331,0,1.66,1,2.725,8.344,1.691,11.516,2.74,12.13,4.478,2.624,1.5-8.239,3.617-17.725,4.149-18.655,1.362-2.357,2.865.852,3.774,8.093.846,6.666,1.581,6.222,4.165-2.528,1.362-4.572,2.646-9.525,2.881-11,.626-4.128,2.145-4.978,3.57-2a11.69,11.69,0,0,1,1.19,3.714c0,.692.36,1.259.783,1.259.532,0,.532.513-.016,1.608-.72,1.447-.564,3.846.485,7.33.313,1.026.485,1,1.112-.191.783-1.5,3.085-10.1,4.791-17.931,1.159-5.352,1.441-5.824,3.022-5.172.7.287,1.347,2.06,1.644,4.555.517,4.143,2.255,7.021,2.912,4.815,1.441-4.88,3.492-12.252,4.181-15.039.83-3.348,2.6-5.058,3.539-3.424.266.471.438,4.7.36,9.389-.094,6.275.11,8.45.783,8.213.955-.344,3.977-9.124,6.8-19.747A41.678,41.678,0,0,1,250,90.119c1.644-1.993,2.881,2.641,3.179,11.88.251,8.042,1.8,5.746,5-7.452,1.362-5.585,2.834-10.618,3.257-11.181,1.519-1.982,2.662.563,3.022,6.738.626,10.311,1.174,9.8,5.9-5.481,2.49-8.011,3.977-11.687,4.838-11.868.673-.146,1.237.037,1.253.406.094,4.361.767,13.558,1.018,13.828.188.193,1.065-2.141,1.973-5.186s1.942-6.267,2.286-7.162c1.362-3.479,1.456-4.56.611-6.574-.955-2.233-5.606-5.206-8.158-5.206a5.415,5.415,0,0,0-3.147,1.713c-1.942,2.089-27.9,20.677-37.846,27.112-6.5,4.2-11.759,8.042-27.324,19.941-2.725,2.077-5.794,4.262-6.827,4.854-1.049.592-4.572,3.12-7.861,5.618-7.735,5.9-9.426,6.916-27.277,16.467-8.252,4.423-21.574,11.912-29.588,16.643s-17.3,10.165-20.639,12.06c-18.43,10.479-21.754,12.574-21.441,13.58.224.721,13.1,9.573,13.923,9.573,1.134,0,6.379,4.275,6.379,5.2a37.091,37.091,0,0,0,2.462,6.689l2.463,5.583.9-12.071c.493-6.622,1.082-12.557,1.307-13.195ZM179.673,192c5.433-1.811,13.8-4.594,18.6-6.187,4.791-1.593,12.135-4.091,16.3-5.566,4.181-1.459,11.869-3.856,17.083-5.3,5.214-1.459,10.068-2.951,10.773-3.336,1.253-.687,7.281-19.153,7.72-23.69.391-3.95,2.1-5.571,6.185-5.908a59.7,59.7,0,0,0,7.187-1.117c1.879-.444,5.026-1.182,6.984-1.641a35.517,35.517,0,0,1,6.7-.837c3.648,0,3.789-1.348.313-3.253-1.237-.674-4.118-2.476-6.4-4.005-3.742-2.49-6.921-4.44-12.9-7.887-3.429-1.98-3.069-2.213-22,13.977-1.879,1.6-5.293,4.381-7.594,6.168s-4.854,3.861-5.7,4.609c-.83.748-3.9,3.367-6.827,5.819-2.912,2.453-8.205,7.031-11.759,10.173-3.539,3.147-7.814,6.785-9.473,8.11a49.9,49.9,0,0,0-4.04,3.437,3.471,3.471,0,0,1-1.55,1.039,18.56,18.56,0,0,0-3.758,3.051c-1.769,1.677-4.807,4.326-6.749,5.885-4.823,3.89-10.632,9.707-9.708,9.724.407.017,5.2-1.459,10.616-3.269Zm12.308-12.373c-.47-1.324,9.332-10.361,18.727-17.238,7.266-5.326,29.328-23.7,31.192-25.977a61.018,61.018,0,0,1,5.12-4.359c2.4-1.888,4.369-3.786,4.369-4.22s1.018-.786,2.27-.786c2.458,0,2.881.872,1.268,2.582-1.707,1.8-10.006,9.466-12.339,11.4a64.726,64.726,0,0,0-5.246,5.152c-3.7,4.064-15.048,14.883-21.248,20.255-2.505,2.163-6,5.231-7.751,6.807a33.418,33.418,0,0,1-7.97,4.812c-6.733,2.733-7.892,2.951-8.393,1.576Zm21.2-5.2a3.54,3.54,0,0,1-.5-1.945c0-1.241,1.19-2.213,8.252-6.84a176.372,176.372,0,0,0,20.043-16.348c2.145-2.133,4.337-2.131,4.337,0,0,.649-4.1,5.549-9.1,10.893-5.011,5.335-9.113,10.113-9.113,10.616s-1.112,1.392-2.458,2c-2.9,1.291-10.742,2.4-11.462,1.626Zm19.448-4.879c-.329-.956.924-2.683,4.4-6.054,4.823-4.679,7.2-6.2,8.127-5.212.642.7-1.707,5.117-4.635,8.685C237.719,170.371,233.429,171.779,232.63,169.549ZM368.4,190.422a15.286,15.286,0,0,0,.7-2.448,5.181,5.181,0,0,1,.924-1.626,23.492,23.492,0,0,0,1.973-3.437c.564-1.224,3.006-3.588,5.418-5.281,2.411-1.677,4.588-3.571,4.823-4.191.47-1.19-2.1-3.554-4.228-3.906-.673-.1-5.12-2.381-9.865-5.036s-11.509-6.183-15.016-7.826l-6.373-2.984-4.823,5.365a50,50,0,0,0-4.9,5.972c-.063.335-.2,1.341-.344,2.247-.125.889-.736,3.538-1.347,5.885-1.613,6.153.047,5.65,4.588-1.392,3.476-5.4,5.684-6.98,6.514-4.661.2.587-.6,4.141-1.785,7.93a75.118,75.118,0,0,0-2.192,7.863c-.047,1.693,1.331,1.157,2.4-.922.548-1.056,2.458-4.175,4.243-6.907,3.194-4.862,5.48-6.354,5.449-3.538a125.87,125.87,0,0,1-2.662,14.133c-1.065,3.588,1.519.989,5.449-5.482,3.758-6.153,4.384-6.824,5.371-5.767,1.174,1.257,1.033,2.1-1.8,10.546-2.568,7.662-.219,7.125,2.881-.654,2.458-6.186,3.852-8.182,5.12-7.343.924.62,1.143,3.923.313,4.812a3.573,3.573,0,0,0-.689,1.559c-.094.553-.532,2.632-.971,4.644-.861,3.89-1.08,7.9-.3,5.7.235-.671.736-2.146,1.127-3.253Zm-32.695-34.867,1.8-1.551-2.286-1.073a10.578,10.578,0,0,1-2.646-1.609,20.85,20.85,0,0,0-3.6-2.335,15.192,15.192,0,0,1-3.664-2.542,19.5,19.5,0,0,0-4.353-2.864c-5.9-3.184-25.9-16.184-32.507-21.126a61.707,61.707,0,0,0-6.232-4.346,61.644,61.644,0,0,1-6.248-4.062,51.041,51.041,0,0,0-6.357-4.062,4.491,4.491,0,0,0-1.785,1.474c-1.19,1.4-.8,1.811,7.5,7.922,4.823,3.546,11.932,8.458,15.815,10.916a113.022,113.022,0,0,1,10.1,7.092c2.756,2.361,6.937,5.125,14.594,9.647a27.536,27.536,0,0,1,3.993,2.833,18.361,18.361,0,0,0,3.461,2.346c1.143.578,3.617,1.908,5.5,2.952,4.165,2.319,4.666,2.347,6.921.389ZM362.172,95.1a30.83,30.83,0,0,0,4.932-1.859c.83-.473,4.165-1.918,7.391-3.212l5.888-2.356.157-5.7c.078-3.137.11-8.566.047-12.065l-.094-6.363-5.073-6.027c-2.787-3.316-5.308-6.029-5.59-6.029s-2.709,2.62-5.387,5.821l-4.87,5.819-.893,8.524c-1.065,10.031-1.362,24.538-.517,24.486.329-.02,2.13-.486,4.009-1.038Zm-45.19-10.225c.235-.406-.266-.545-1.1-.312-1.769.5-2,1.05-.423,1.05A1.911,1.911,0,0,0,316.982,84.873Zm-86.795-.917c.814-.463,1.472-1.108,1.472-1.435,0-2.235-38.5-25.053-47.586-28.2-2.74-.947-4.118-1.915-4.463-3.117-1-3.4-4.9-7.67-11.1-12.113-5.935-4.248-15.77-10.348-16.7-10.348-.451,0-2.289,4.646-4.123,10.416-1.4,4.394-1.082,4.825,6,8.259,3.03,1.467,7.727,3.759,10.436,5.092a33.5,33.5,0,0,0,8.346,2.855c3.742.469,14.922,6.435,45.143,24.1,9.614,5.61,10.241,5.838,12.574,4.5ZM319.3,80.735c0-1.787-.251-3.249-.548-3.249s-.376-.469-.172-1.041c.532-1.5-3.085-1.636-4.228-.163-.752.976-.7,1.2.251,1.2a2,2,0,0,1,1.6.694c.219.382-.391.533-1.362.334-1.268-.258-2.239.268-3.414,1.866-2.114,2.882-1.55,3.39,1.581,1.425,3.836-2.409,5.152-2.813,4.651-1.435a4.3,4.3,0,0,0,.016,2.4C318.485,85.025,319.3,84.008,319.3,80.735Zm23.91-2.641a31.006,31.006,0,0,1,1.159-5.89,36.456,36.456,0,0,0,1.237-7.551c.047-2.8.7-4.366,3.3-7.954a41.273,41.273,0,0,0,4.165-6.871c.517-1.323,1.456-2.406,2.114-2.406,3.053,0-.485-1-7.359-2.077-1.409-.221-3.868-.716-5.449-1.1-2.239-.54-2.975-.434-3.3.479-.235.672-.814.914-1.331.567-.72-.474-.72-.679,0-.934a.737.737,0,0,0,.485-1.061c-.235-.406-.877-.283-1.441.272s-.861,1.283-.673,1.618-.344.609-1.174.609c-1.785,0-2.317.739-2.537,3.564-.078,1.147-.548,2.243-1.018,2.439s-1.816,2.089-2.975,4.208c-1.66,3.033-2.177,5.171-2.443,10.022-.36,6.565.3,7.278,1.409,1.531,1.018-5.251,1.018-5.259,2.067-6.614a56.591,56.591,0,0,0,3.539-6.978c1.989-4.424,2.834-5.6,3.8-5.2,1.284.53,1.268.833-.47,7.417-.5,1.916-.658,3.744-.344,4.062.658.691,5.355-4.9,7.015-8.356,1.425-2.952,2.239-3.574,4.009-3.08,1.253.35,1.206.734-.548,5.385-1.049,2.753-2.427,6.076-3.085,7.384-1.472,2.984-2.333,18.34-1.033,18.34C342.818,79.922,343.21,79.1,343.21,78.094Zm-35.294-3.046c.266-.448.125-.813-.282-.813a1.669,1.669,0,0,0-1.237.813c-.251.446-.125.811.3.811a1.645,1.645,0,0,0,1.221-.811Zm29.2-13.2a.666.666,0,0,0-.72-.609c-.877,0-2.161,4.842-2.693,10.239-.36,3.633-.235,3.415,1.5-2.522C336.242,65.379,337.1,62.18,337.119,61.845Zm-24.6,9.875c.282-.49,1.456-.741,2.615-.558,1.879.293,2.224-.018,3.069-2.77.532-1.707.783-3.3.564-3.534-.7-.749-4.4,1.46-4.4,2.627a2.089,2.089,0,0,1-1.331,1.656,10.853,10.853,0,0,0-2.8,2.005c-1.441,1.445-1.441,1.464.157,1.464a2.7,2.7,0,0,0,2.13-.89ZM353.372,64.5c-.485-.526-.736-.251-.736.8s.251,1.326.736.8A1.041,1.041,0,0,0,353.372,64.5Zm-41.7-2.54c.438-.436.094-.721-.861-.721a3.818,3.818,0,0,0-2.615,1.335c-.924,1.2-.83,1.273.861.723A8.113,8.113,0,0,0,311.674,61.958Zm7.751-.037a9.033,9.033,0,0,1,.6-4.384c.783-1.993.814-2.875.157-3.647s-.658-.889,0-.49c.924.557,4.807-3.8,4.823-5.429q.023-.946.658.129c.517.87.736.823,1.112-.233.7-1.953-1.769-2.664-3.006-.862-.548.808-.846,1.729-.673,2.044.188.315-.485.971-1.472,1.455A5.02,5.02,0,0,0,319.3,53.12c-.3.979-.955,1.556-1.519,1.324-.548-.228-1.159.292-1.378,1.184-.219.875-.673,1.537-1.018,1.472-1.613-.3-2.537.173-2.537,1.291a1.3,1.3,0,0,1-1.331,1.232c-1.127.01-1.159.127-.188.8,1.707,1.182,2.27.982,2.27-.795,0-1.42.235-1.5,1.91-.682a3.238,3.238,0,0,1,1.895,2.285c0,1.521.642,2.441,1.722,2.441.407,0,.532-.788.3-1.752Zm35.153.127c0-.446-.485-.811-1.1-.811a1.94,1.94,0,0,0-1.55.811c-.266.448.235.813,1.1.813C353.873,62.861,354.578,62.5,354.578,62.048Zm.767-3.283c0-1.133,2.239-3.583,4.384-4.771.94-.53,1.519-1.311,1.284-1.735-.251-.424.078-.773.736-.773.642,0,1.174-.365,1.174-.811s-.5-.813-1.127-.813-1.143-.387-1.143-.86-.344-.634-.752-.359c-.423.277-.767.149-.767-.282s-.658-.6-1.456-.374c-1,.278-1.456,1.1-1.441,2.563a12.028,12.028,0,0,1-1.19,4.592c-1.394,2.788-1.566,4.468-.47,4.468a.811.811,0,0,0,.767-.845Zm1.519-5.653a.761.761,0,1,1,.752.811A.79.79,0,0,1,356.864,53.112Zm-57.294-.453a47.091,47.091,0,0,1,6.78-1.635,21.633,21.633,0,0,0,10.428-5.035,28.336,28.336,0,0,1,3.539-2.5c3.7-2.195,10.538-7.239,11.071-8.155.517-.9-1.973-1.73-15.5-5.2-4.384-1.125-9.849-2.587-12.135-3.249-8.988-2.592-14.374-3.4-15.377-2.29-.767.83-.564,1,.955.873,5.1-.429,5.183,1.646.188,4.436-3.711,2.067-3.6,2.634.266,1.36,5.794-1.908,10.992-2.771,11.759-1.95,1.253,1.336-2.584,3.663-11.086,6.723-4.165,1.5-8.941,3.408-10.616,4.233-2.725,1.35-2.8,1.462-.752,1.115,4.635-.79,16.739-3.722,18.211-4.414,3.053-1.447,12.511-3.533,13.732-3.03,1.159.476,1.159.635.047,1.955a16.122,16.122,0,0,1-5.23,2.941,24.1,24.1,0,0,0-4.729,2.2,4.093,4.093,0,0,1-2.411.7,2.766,2.766,0,0,0-2.177.827.842.842,0,0,1-1.174.364c-.391-.255-2.286.288-4.228,1.205a22.178,22.178,0,0,1-4.212,1.667,16.673,16.673,0,0,0-3.727,1.568,28.837,28.837,0,0,1-5.277,2.1c-1.237.292-2.255.865-2.255,1.276,0,1.008.36.957,3.633-.535,3.476-1.578,11.619-4.379,12.793-4.394a16.32,16.32,0,0,0,3.789-1.38,12.715,12.715,0,0,1,3.429-1.242,78.615,78.615,0,0,0,8.628-2.693c9.317-3.232,11.744-3.511,11.744-1.348,0,1.083-2.552,2.8-9.677,6.477-5.324,2.753-11.885,5.922-14.609,7.042-4.2,1.732-4.478,1.962-1.895,1.542a43.644,43.644,0,0,0,6.075-1.547ZM245.36,42.347c.971-2.793,2.458-6.542,3.32-8.331,1.989-4.144,9.865-12.128,11.352-11.518,1.441.6.783,3.184-1.472,5.794-3.461,3.99-5.5,7.389-6.013,9.992-.282,1.452-.344,2.641-.11,2.641.313,0,11.65-14.843,12.276-16.066.266-.531,2.6.877,2.6,1.573a24.443,24.443,0,0,1-1.566,4.461c-.861,2.03-1.394,3.88-1.174,4.113s3.821-2.062,8.017-5.1c4.181-3.035,7.453-5.7,7.25-5.918a3.679,3.679,0,0,0-1.707-.557,11.21,11.21,0,0,1-2.474-.63c-.611-.26-4.369-1.554-8.346-2.879-15.705-5.248-14.2-4.942-16.9-3.413-3.382,1.91-15.189,9.758-16.1,10.693-.689.724-.736,9.788-.063,13.314a26.441,26.441,0,0,1,.376,3.454c.031,1.006.391,1.827.814,1.827s.767-.822.767-1.827a62.381,62.381,0,0,1,1.707-8.4c1.55-6.005,2.036-6.871,5.5-10,2.083-1.884,4.525-4.136,5.418-5,2.02-1.963,4.071-2.042,4.056-.158,0,.783-1.691,3.747-3.742,6.589a24,24,0,0,0-4.932,10.722c-1.112,5.256-1.519,9.7-.893,9.7a28.321,28.321,0,0,0,2.036-5.077Zm83.8,2.641c.251-.448-.063-.813-.72-.813-.642,0-1.174.365-1.174.813a.764.764,0,0,0,.7.811,1.649,1.649,0,0,0,1.19-.811Zm1.895-2.438c0-.448-.157-.813-.329-.813-.188,0-.548.365-.814.813-.251.446-.094.811.345.811a.808.808,0,0,0,.8-.811Zm2.067-2.116a1.443,1.443,0,0,0-1.456-.064c-.6.258-.423.451.47.49.8.035,1.237-.156.987-.426ZM147.808,293.594c.258-.453.62-.8.8-.8s.335.352.335.8a.815.815,0,0,1-.8.822C147.7,294.416,147.55,294.047,147.808,293.594Zm236.615-20.119c-3.836-3.906-10.789-10.747-15.471-15.223-4.682-4.46-10.6-10.143-13.137-12.624-2.552-2.465-6.263-5.868-8.236-7.545-1.973-1.693-4.024-3.521-4.541-4.074-.532-.553-3.883-3.538-7.422-6.622-3.554-3.1-7.814-6.975-9.489-8.6-6-5.868-8.722-8.215-8.722-7.494,0,.905,7.5,9.137,30.753,33.665,24.944,26.339,28.4,30.463,27.277,32.408-.752,1.324-1.347.972-5.684-3.336-2.286-2.28-5.872-5.583-7.954-7.327-7.062-5.952-15.392-13.3-22-19.415-17.929-16.581-28.968-26.255-30.753-26.976-.783-.3.188,1.157,2.145,3.253,1.957,2.112,5.95,6.74,8.863,10.294a126.816,126.816,0,0,0,11.65,12.792,38.644,38.644,0,0,1,2.834,3.135,40.506,40.506,0,0,0,3.414,3.655c1.018.939,4.572,4.912,7.908,8.835s7.375,8.014,8.957,9.1c2.145,1.475,2.834,2.448,2.662,3.772-.125.989-.626,1.794-1.1,1.794-.485,0-4.463-3.487-8.863-7.729-8.878-8.584-15.94-14.9-33.587-30.061-2.333-2.012-5.042-4.376-6.013-5.281-2.866-2.632-5.809-5.147-10.053-8.584-6.53-5.3-6.31-5.616,9.3-13.362,9.458-4.711,23.816-12.373,29.861-15.944l4.056-2.4,3.915,3.973c2.145,2.163,6.138,6.3,8.878,9.171s6.686,6.857,8.753,8.869c7.391,7.159,21.186,20.756,23.691,23.354,2.411,2.5,2.912,4.678,1.049,4.678-.47,0-3.68-2.448-7.14-5.432-19.182-16.531-33.713-28.6-34.95-28.988-1.519-.486,13.247,15.609,37.267,40.64,7.579,7.88,13.779,14.9,13.779,15.592,0,2.934-1.926,1.777-9.285-5.633-4.29-4.326-10.006-9.791-12.73-12.138a107.139,107.139,0,0,1-7.97-7.7,39.168,39.168,0,0,0-5.888-5.382,69.706,69.706,0,0,1-9.223-7.645c-1.707-1.593-4.4-3.906-6-5.164-1.6-1.274-5.34-4.627-8.315-7.461-9.176-8.7-6.608-5.1,4.87,6.84,10.507,10.948,22.877,24.126,43.358,46.156,9.583,10.311,11.368,13.278,7.954,13.262C391.986,280.584,388.917,278.053,384.423,273.476ZM4.017,227.488a27.677,27.677,0,0,0-.474-3.655c-.447-2.4-.344-2.548,1.816-2.548,2.844,0,3.492,1.593,1.979,4.828-1.173,2.532-3.32,3.4-3.32,1.375Zm4.375-10.512c-2.608-.6-3.717-1.291-4.044-2.532-1.332-5-2.286-4.577,10.229-4.493,7.14.067,11.617.419,11.927.956.7,1.207-2.415,3.521-7.388,5.466C14.492,218.183,13.754,218.216,8.392,216.976Zm48.363-19.3c-1.253-.419-8.423-1.308-15.936-1.978-13.842-1.257-30.246-3.152-35.516-4.108-2.407-.436-2.85-.822-2.656-2.28.232-1.744.337-1.744,26.032-2.146,31.73-.5,37.5-.3,38.091,1.341a9.894,9.894,0,0,1-.54,4.376c-.711,2.314-.75,3.454-.144,4.242.669.855.061,1.09-3.111,1.174a23.9,23.9,0,0,1-6.22-.62Zm402.406-1.324a1.45,1.45,0,0,1,1.456.067c.251.268-.2.469-1,.436-.877-.05-1.065-.235-.454-.5ZM68.295,183.411c-.221-.235-7.007-2.263-15.082-4.51-21.779-6.052-22.778-6.3-25.9-6.505-3.295-.2-5.294-1.945-3.219-2.8.706-.285,4.586-.3,8.623-.017s12.8.738,19.478,1.006,13.593.771,15.367,1.123c5.845,1.123,3.356-.553-3.415-2.3-3.652-.956-10.97-2.984-16.264-4.51A119.129,119.129,0,0,0,34.6,161.719c-5.076-.56-8.321-1.977-7.223-3.152.864-.925,8.086-1.023,9.44-.126a43.677,43.677,0,0,0,7.676,1.143c3.818.36,7.964.843,9.217,1.075,4.212.778,9.06,1.378,17.072,2.111,4.383.4,9.5.929,11.382,1.172l3.415.441-3.794-1.239A201.241,201.241,0,0,0,57.5,156.651c-8.65-1.581-9.486-1.859-9.486-3.165,0-1.613,2.043-1.874,8.726-1.115,15.192,1.723,26.937,2.693,26.937,2.221,0-.545-3.886-1.4-16.315-3.576-17.885-3.135-21.447-3.771-25.039-4.463-2.087-.4-5.953-.976-8.592-1.271-4.845-.545-6.58-1.916-4.813-3.807.608-.651,1.928-.63,4.843.074a78.45,78.45,0,0,0,11.6,1.288c4.173.176,14.075.7,22,1.164,22.886,1.34,43.3,1.779,38.321.827-19-3.631-32.151-5.747-35.664-5.734-4.242.015-10.377-1.142-18.591-3.506a40.457,40.457,0,0,0-9.486-1.278c-5.515.035-7.3-.728-6.553-2.8.368-1.026,1.005-1.251,2.452-.862a139.718,139.718,0,0,0,14.221.9c6.746.2,13.972.565,16.059.8,3.318.379,32.252,1.888,44.6,2.325,6.559.233,6.807-.813.453-1.916a102.206,102.206,0,0,1-10.569-2.515c-5.17-1.6-18.929-4.263-27.034-5.222-2.889-.344-4.842-.986-5.089-1.677-.664-1.854.8-2.133,6.561-1.256,4.773.728,17.1,1.727,35.822,2.9,4.953.312,7.231-.342,7.231-2.072,0-1.1-7.483-3.164-13.368-3.683-7.8-.691-10.535-1.412-10.535-2.783a1.147,1.147,0,0,1,1.138-1.169c9.121.136,39.03,1.38,41.166,1.713,1.6.25,2.845.1,2.845-.335s-1.647-1.013-3.663-1.3a67.346,67.346,0,0,1-7.778-1.724c-5.343-1.563-18.831-4.233-28.253-5.595-7.64-1.1-10.244-2.315-8.106-3.771a2.539,2.539,0,0,1,1.968-.444c.459.179,5.581.573,11.382.875s11.363.686,12.361.852c1.89.315,14.207.971,28.537,1.521,4.732.181,7.688.034,6.829-.344a113.36,113.36,0,0,0-14.417-3.69c-1.253-.186-6.375-1.058-11.382-1.936s-11.667-1.846-14.8-2.149c-5.5-.535-7.588-1.34-7.588-2.931,0-.877,25.127.282,32.629,1.506,4.167.679,23.508,1.539,22.913,1.019-.673-.59-10.256-2.8-17.221-3.972-5.28-.889-7.347-1.3-18.97-3.757a95.683,95.683,0,0,0-12.733-1.589c-7.225-.332-8.135-.617-8.135-2.56,0-1.127,1.159-1.215,9.675-.738,5.321.3,12.918.9,16.883,1.331s12.5,1.15,18.97,1.591c10.5.716,17.9,1.467,27.847,2.827,1.738.24,3.367.091,3.617-.329.235-.421-1.19-1-3.179-1.293s-9.254-1.975-16.144-3.745-14.57-3.737-17.074-4.374a103.548,103.548,0,0,0-11.263-1.908c-6.7-.749-8.717-1.609-7.738-3.306.341-.588,2.267-.743,5.587-.446,2.787.25,6.775.6,8.863.77,14.282,1.189,25.071,2.233,29.972,2.9,3.132.426,10.131,1.153,15.549,1.618,5.433.464,10.554.987,11.384,1.164.846.174,1.785.345,2.1.381s.564.7.564,1.487c0,1.554-5.7,6.518-17.96,15.636-7.579,5.635-14.8,11.087-17.318,13.087-1.675,1.319-3.9,3.026-4.932,3.792-1.049.766-5.488,4.141-9.871,7.5-10.062,7.714-14.118,10.745-15.768,11.785a79.615,79.615,0,0,0-8.892,6.572c-2.974,2.527-23.023,16.91-28.646,20.551-1.566,1.013-2.845,2.171-2.845,2.59a.821.821,0,0,1-.875.738c-.481,0-2.274,1.123-3.984,2.465a90.891,90.891,0,0,1-11.971,8.467,17.015,17.015,0,0,0-4.032,2.884c-.664,1.14-4.654,3.286-5.148,2.75Zm57.88-58.941a.7.7,0,0,0-.714-.677,1.439,1.439,0,0,0-1.105.677c-.215.372.106.676.714.676S126.174,124.842,126.174,124.47Zm286.831,57.2a59.269,59.269,0,0,1-5.308-4.409,49.323,49.323,0,0,0-4.557-3.789c-1.049-.721-8.33-6.237-16.206-12.286-7.861-6.042-16.394-12.549-18.962-14.459-6.624-4.924-6.671-4.956-17.569-13.635-5.433-4.317-10.6-8.219-11.509-8.671a4.1,4.1,0,0,1-1.989-2.211c-.72-2.969,1.722-4.27,10.084-5.38,1.769-.235,6.091-1.231,17.068-3.932,2.505-.615,9.677-2.268,15.94-3.672s14.108-3.244,17.443-4.091c15.032-3.807,20.826-5.115,25.429-5.742,2.709-.369,7.939-1.113,11.619-1.655,5-.736,6.89-.751,7.547-.057,1.268,1.368-.438,2.875-3.429,3.014-1.362.062-6.905,1.786-12.323,3.833-5.433,2.045-12.934,4.53-16.692,5.521a61.347,61.347,0,0,0-9.489,3.207,24.6,24.6,0,0,1-6,2c-3.492.624-13.294,4.079-15.251,5.378-1.378.912,3.038.226,9.082-1.407a32.2,32.2,0,0,1,5.872-1.122,26.905,26.905,0,0,0,6.107-1.579,117.45,117.45,0,0,1,12.715-3.284c4.588-.939,11.415-2.4,15.173-3.244s8.017-1.7,9.473-1.893c3.006-.4,16.253-3.427,20.873-4.768,4.76-1.381,10.632-1.319,10.632.114,0,.677-1.143,1.5-2.662,1.916-1.456.4-5.214,1.594-8.346,2.652s-7.735,2.436-10.241,3.065-8.831,2.5-14.046,4.151-15.8,5-23.519,7.446-17.459,5.536-21.624,6.879c-4.181,1.343-8.957,2.81-10.632,3.259a11.561,11.561,0,0,0-3.758,1.581,4.6,4.6,0,0,1-2.787.766,3.54,3.54,0,0,0-2.49.7c-.219.389,1.018.4,2.8.029,1.754-.371,5.418-1.063,8.127-1.539a66.933,66.933,0,0,0,8.581-2.134,138.039,138.039,0,0,1,14.03-3.177c5.731-1.05,11.775-2.289,13.435-2.753,1.675-.464,6.279-1.407,10.256-2.094,3.962-.686,9.426-1.755,12.135-2.377s8.863-1.916,13.654-2.879c4.807-.961,10.554-2.294,12.777-2.959,3.1-.929,4.29-.991,5.12-.265,1.378,1.234.673,2.389-1.472,2.389a3.968,3.968,0,0,0-2.427.746,18.467,18.467,0,0,1-4.885,1.962c-2.3.667-7.078,2.3-10.632,3.636-3.539,1.331-9.865,3.4-14.03,4.6-4.181,1.2-9.473,2.916-11.759,3.814-2.3.9-7.25,2.471-11.008,3.5s-9.9,2.86-13.654,4.082-8.534,2.684-10.632,3.247c-11.352,3.061-14.672,4.688-11.2,5.466,1.942.429,7.2-.644,22.579-4.6,7.516-1.933,15.032-3.759,16.692-4.054,5.4-.961,27.825-6.145,37.3-8.624,5.058-1.328,9.755-2.188,10.429-1.911,3.116,1.279.752,2.793-9.974,6.4-6.154,2.069-12.9,4.438-14.985,5.266s-9.6,3.405-16.692,5.729c-17.647,5.774-30.957,10.589-31.865,11.523-.5.5-.094.629,1.127.362,1.049-.23,4.807-.838,8.346-1.351,3.554-.515,9.019-1.6,12.151-2.409s7.219-1.708,9.1-2a74.631,74.631,0,0,0,8.346-2.024c7.516-2.285,18.085-4.919,19.761-4.919,2.255,0,1.785,2.185-.6,2.8-1.143.3-6.357,2.4-11.572,4.659s-14.75,6.079-21.186,8.478c-14.891,5.554-15.721,6.158-5.371,3.978,7.328-1.542,24.834-5.407,38.144-8.406,6.091-1.371,10.632-2.04,10.9-1.6a1.117,1.117,0,0,1-.016,1.229c-.642.691-14.75,6.731-15.721,6.731a14.712,14.712,0,0,0-3.6,1.308c-5.152,2.414-5.794,2.666-8.456,3.185a19.5,19.5,0,0,0-5.167,2.079,10.276,10.276,0,0,1-3.946,1.559,2.417,2.417,0,0,0-1.91.822c-.517.922,1.785.654,12.918-1.459,8.315-1.593,13.4-1.744,13.826-.436.188.587-1.018,1.324-2.959,1.844-1.8.486-5.841,1.794-8.972,2.9s-9.113,3.219-13.278,4.694l-7.594,2.666-2.646-1.911Zm-84.6-55.908c-2.505-.555-4.776-.857-5.058-.671s-1.472-.186-2.662-.822c-2.177-1.172-12.433-3.754-14.844-3.735-2.286.018-2.959-2.688-1.456-5.841a31.2,31.2,0,0,1,2.208-3.97c.485-.63,1.879-2.426,3.085-3.99a77.615,77.615,0,0,0,4.416-6.564c3.508-5.953,6.248-9.084,7.485-8.572,1.832.749,1.315,3.2-1.754,8.307-3.257,5.456-7.735,13.885-7.735,14.583,0,1.09,1.707-.818,3.57-3.963,3.507-5.952,11.791-16.375,13.247-16.643,1.863-.347,1.754,1.06-.47,5.933-4.776,10.534-5.95,13.456-5.559,13.872.235.248,2.552-3.043,5.152-7.313,3.194-5.244,5.2-7.764,6.154-7.764,1.989,0,1.832.7-1.707,8.133-1.722,3.606-2.959,6.752-2.725,6.986.219.236,2.349-2.156,4.729-5.315s4.682-5.742,5.1-5.742c1.253,0,.063,5.647-2.787,13.189-1.441,3.821-2.443,7.669-2.224,8.549.548,2.221-.861,2.528-6.169,1.353Z" transform="translate(14.394 100.924)"/>
  </g>
</svg>
