<?xml version="1.0" encoding="utf-8"?>

<!DOCTYPE svg PUBLIC "-//W3C//DTD SVG 1.1//EN" "http://www.w3.org/Graphics/SVG/1.1/DTD/svg11.dtd">
<svg version="1.1" id="Layer_1" xmlns="http://www.w3.org/2000/svg" xmlns:xlink="http://www.w3.org/1999/xlink" x="0px" y="0px"
	 viewBox="685.194 -31.868 1210.365 1667.791" enable-background="new 685.194 -31.868 1210.365 1667.791" xml:space="preserve">
<g>
	<path d="M960.55,1195.555c8.871-0.005,17.78-0.405,26.623,0.362c8.663,1.216,17.325,2.674,25.768,5.002
		c2.701,0.674,5.507,0.756,8.246,1.244c2.904,0.646,5.643,1.857,8.421,2.909c4.044,1.551,7.348,4.909,8.723,9.03
		c0.795,2.203-0.066,4.701-1.534,6.427c-1.863,1.72-4.312,2.592-6.569,3.677c1.249,3.036,3.052,6.811,0.97,9.906
		c-2.203,2.641-5.874,3.178-8.958,4.263c-0.583,0.205-0.122,9.348-0.123,10.367c-0.004,3.606,0.002,7.214,0.058,10.82
		c0.107,6.894,0.347,13.774,0.993,20.642c1.79,18.999,5.04,40.036,15.035,56.62c2.784,4.62,5.585,9.273,8.808,13.621
		c3.424,4.411,6.476,9.128,10.421,13.117c1.15,1.163,2.109,2.518,3.286,3.673c1.108,1.089,2.289,2.002,3.378,3.138
		c2.426,2.53,4.91,5.005,7.449,7.422c5.078,4.834,10.374,9.438,15.869,13.792c8.682,6.879,17.579,13.571,26.525,20.105
		c4.641,3.781,9.43,7.38,14.164,11.052c3.693,3.068,7.38,6.142,11.232,9.013c9.557,7.124,18.648,14.907,26.865,23.554
		c18.355,19.314,30.524,42.968,30.011,70.15c-0.44,23.29-10.019,49.489-28.6,64.476c-1.369,1.105-2.797,2.169-4.151,3.308
		c-3.89,3.233-8.679,5.266-13.649,6.115c-14.186,2.425-28.962,1.44-43.291,1.458c-29.833,0-59.621,0.023-89.456,0.22
		c-29.883,0.2-59.771,0.297-89.646,0.634c-30.42,0.344-60.843,0.421-91.265,0.231c-10.14-0.063-20.612,0.409-30.697-0.763
		c-4.981-0.241-9.72-1.94-14.355-3.627c-21.282-7.748-35.752-29.305-41.446-50.445c-3.627-13.465-4.372-27.738-1.365-41.398
		c2.5-11.358,8.569-21.822,14.734-31.592c6.887-10.914,14.973-21.094,23.912-30.394c18.922-19.687,42.931-33.208,64.573-49.486
		c17.118-12.874,32.849-27.515,46.157-44.321c2.715-4.138,5.92-7.638,8.407-11.974c2.521-4.395,4.756-8.955,6.69-13.639
		c10.37-25.126,13.358-54.355,10.274-81.229c-0.033-0.289-0.067-0.577-0.101-0.866c-3.634-1.244-7.931-2.312-10.012-5.875
		c-2.416-3.238-1.348-7.452-0.674-11.079c-3.392-1.309-7.331-2.4-9.441-5.616c-1.737-2.531-1.518-5.863-0.488-8.619
		c1.107-3.622,4.559-5.748,7.649-7.545c4.372-2.088,9.052-3.627,13.879-4.203C935.933,1197.791,948.216,1195.381,960.55,1195.555
		 M989.326,1200.623c-1.523,0.411-0.931,2.394-1.238,3.572c5.167,0.477,10.262,1.688,15.462,1.781
		c-0.033-1.238-0.055-2.471-0.077-3.693C998.832,1201.324,994.104,1199.938,989.326,1200.623 M908.859,1214.37
		c0.236,2.153,2.164,3.282,3.983,4.027c0.263-0.323,0.789-0.959,1.057-1.282c-0.789-3.249-0.756-6.597-0.789-9.912
		C910.832,1208.885,908.744,1211.373,908.859,1214.37 M1031.28,1218.835c0.619-1.156,1.66-2.307,1.359-3.704
		c-0.373-2.564-2.438-4.389-4.515-5.682C1028.502,1212.77,1029.998,1215.789,1031.28,1218.835 M944.474,1220.589
		c-4.602,0.668-9.271,0.74-13.851,1.6c-4.356,0.657-8.882,1.83-12.213,4.876c-1.6,1.342-1.83,3.66-1.359,5.583
		c0.679,1.414,2.088,2.411,3.578,2.833c1.101,0.121,2.082-0.581,3.085-0.937c-0.844-2.175-2.153-4.964-0.564-7.095
		c2.663-1.94,6.137-2.126,9.287-2.635c5.178-0.471,10.317-1.392,15.528-1.43c5.627-0.701,11.309-0.411,16.964-0.416
		c4.745,0.077,9.517-0.268,14.24,0.395c10.624,0.329,21.292,1.386,31.615,4.027c2.148,0.646,4.553,1.2,6.137,2.898
		c0.46,1.781,0.537,3.644,0.756,5.479c2.164-0.789,4.394-1.457,6.4-2.608c0.948-0.625,2.099-1.551,1.956-2.805
		c-0.783-2.219-3.194-3.134-5.189-3.934c-5.172-1.797-10.498-3.227-15.928-3.939c-9.753-1.014-19.506-2.427-29.335-2.356
		c-5.731-0.625-11.517-0.619-17.265-0.301C953.723,1220.501,949.054,1219.816,944.474,1220.589 M997.704,1248.456
		c-0.411,6.208-1.923,12.328-1.814,18.585c0.038,5.375-0.279,10.777,0.433,16.136c0.093,3.939,0.192,7.89,0.767,11.807
		c1.326,9.2,1.781,18.52,3.655,27.642c2.318,15.621,7.567,30.601,13.413,45.203c2.285,5.868,5.66,11.216,8.312,16.914
		c4.422,9.024,9.884,17.467,14.975,26.119c5.693,9.211,9.632,19.363,15.106,28.694c1.26,2.219,1.956,4.696,2.964,7.035
		c0.795,2.066,3.315,2.252,5.123,2.931c-0.016-2.181-0.055-4.383-1.101-6.345c-3.32-8.86-8.175-17.013-12.487-25.396
		c-2.488-4.526-5.961-8.427-8.301-13.046c-5.265-8.734-10.306-17.594-14.931-26.683c-2.657-5.441-5.786-10.673-7.731-16.432
		c-4.635-11.468-8.246-23.369-10.394-35.56c-1.463-8.147-2.942-16.306-3.874-24.53c-0.712-4.772-0.236-9.616-0.931-14.383
		c-0.055-8.706-0.416-17.451,0.466-26.125c-0.082-4.35,0.526-8.663,0.636-13.002c0.247-3.364,0.91-6.767,0.384-10.131
		c-0.657-0.493-1.326-0.937-2.016-1.331C997.95,1240.062,998.296,1244.434,997.704,1248.456 M1005.276,1239.174
		c0.12,5.655-0.658,11.265-0.625,16.92c-0.044,2.75-0.701,5.49-0.373,8.257c0.805,6.531-0.148,13.15,0.827,19.67
		c0.016,5.731,1.386,11.32,2.181,16.969c0.833,7.019,2.712,13.846,3.945,20.799c2.099,7.802,3.748,15.731,6.098,23.473
		c1.649,4.948,3.567,9.813,5.6,14.618c3.342,6.542,6.191,13.325,9.747,19.763c6.975,14.323,16.361,27.275,23.878,41.302
		c2.109,3.66,3.545,7.66,5.665,11.32c1.923,3.32,3.112,6.997,4.92,10.388c1.331,2.482,1.989,5.26,3.227,7.797
		c0.466,1.145,1.72,1.529,2.827,1.808c4.088,0.932,8.274,1.326,12.443,1.764c3.731,0.208,7.463,0.981,11.205,0.411
		c-2.323-7.72-3.934-15.747-7.759-22.914c-2.871-5.37-4.964-11.156-8.4-16.207c-5.035-7.249-10.876-13.884-16.826-20.382
		c-2.953-3.605-6.783-6.372-9.583-10.115c-11.928-13.577-22.119-28.733-29.708-45.154c-1.403-3.907-2.657-7.868-4.274-11.693
		c-2.225-6.613-3.802-13.44-4.931-20.322c-1.518-7.101-1.819-14.377-2.444-21.582c-0.055-9.232-0.093-18.465,0.005-27.692
		c0.356-4.986,0.888-10.032,0.345-15.002C1011.413,1240.856,1008.35,1239.432,1005.276,1239.174 M939.312,1288.037
		c-1.003-0.071-2.055,0.384-2.416,1.392c-0.789,1.951-0.948,4.087-1.183,6.17c-0.8,11.851-2.548,23.675-5.923,35.083
		c-1.983,7.134-4.948,13.928-7.687,20.793c-2.586,6.087-5.901,11.824-9.282,17.495c-1.26,2.225-2.712,4.487-3.035,7.09
		c0.992,2.805,4.575,2.329,6.296,0.548c2.975-3.134,4.707-7.178,6.69-10.958c4.285-8.054,7.342-16.673,10.465-25.215
		c2.619-8.591,5.479-17.139,6.942-26.021c1.118-7.758,3.025-15.632,1.545-23.478
		C941.427,1289.665,941.082,1287.522,939.312,1288.037 M884.861,1390.81c-2.953,2.909-5.885,5.89-8.317,9.265
		c-3.046,4.23-6.465,8.191-9.304,12.58c-2.92,4.553-6.591,8.597-9.128,13.402c-1.315,2.526-3.287,4.739-4.104,7.512
		c-0.099,1.337-0.619,3.14,0.504,4.186c2.323,0.153,4.586-0.526,6.904-0.537c2.767-0.137,5.813,0.334,8.257-1.277
		c2.909-1.978,4.444-5.304,6.027-8.323c3.545-7.589,8.038-14.701,13.117-21.336c3.863-5.983,9.671-10.257,14.262-15.605
		c-3.857-1.573-8.065-1.627-12.131-2.186C888.652,1388.103,886.45,1389.232,884.861,1390.81 M908.58,1393.686
		c-3.063,2.625-5.485,5.906-7.813,9.177c-5.627,8.224-11.199,16.531-15.774,25.396c-1.101,2.022-2.679,3.786-3.534,5.95
		c-0.208,1.101-0.586,2.663,0.482,3.474c0.789,0.712,1.874,0.395,2.827,0.318c4.52-0.767,9.419,0.438,13.627-1.847
		c4.016-2.438,6.482-6.646,8.58-10.717c3.003-5.622,6.033-11.249,9.868-16.355c2.745-4.334,6.131-8.191,9.189-12.295
		c-4.016-1.704-8.241-2.811-12.492-3.704C911.889,1392.793,909.906,1392.36,908.58,1393.686 M960.977,1397.828
		c-3.123,0.931-5.337,3.485-7.243,5.989c3.304,0.893,6.728,0.433,10.104,0.466c5.841-0.022,11.687,0.066,17.533,0.071
		c7.145,0.077,13.928,2.57,20.903,3.737c2.74,0.614,4.729-1.72,6.411-3.474c-4.586-2.668-9.906-3.331-14.859-5.008
		c-4.948-1.638-10.164-2.225-15.336-2.559C972.68,1396.388,966.631,1396.081,960.977,1397.828 M799.21,1445.388
		c-5.841,6.57-12.492,12.427-17.72,19.533c-5.298,7.178-10.257,14.706-13.577,23.034c-3.457,7.501-4.526,15.758-5.605,23.862
		c-0.712,4.52-1.063,9.095-0.904,13.676c0.121,11.172,3.868,22.032,9.32,31.697c2.63,4.356,5.885,8.301,9.063,12.273
		c2.405,2.668,4.926,5.611,8.465,6.756c1.348,0.427,2.471-0.729,3.594-1.271c-1.14-1.085-2.296-2.137-3.49-3.145
		c-3.983-3.238-6.871-7.589-9.419-11.988c-2.082-4.159-4.268-8.285-5.879-12.651c-2.219-6.432-3.77-13.144-4.055-19.949
		c0.038-6.531-0.285-13.117,0.992-19.555c1.129-5.868,2.044-11.862,4.509-17.353c2.301-6.268,4.438-12.662,7.95-18.377
		c1.666-2.542,3.211-5.156,4.849-7.704c4.044-5.906,8.887-11.199,13.468-16.673c2.909-3.359,7.37-5.967,7.961-10.761
		C804.717,1438.594,802.114,1442.248,799.21,1445.388 M1128.151,1449.289c3.03,6.246,9.205,10,13.172,15.561
		c3.348,4.493,7.041,8.717,10.191,13.358c6.339,8.405,11.479,17.714,15.013,27.642c1.452,4.739,2.449,9.627,2.97,14.558
		c0.192,6.214,0.307,12.454-0.373,18.646c0.17,6.279-2.246,12.197-4.712,17.851c-1.331,2.909-2.603,5.956-4.822,8.328
		c-4.57,4.772-10.29,8.542-16.651,10.41c-5.282,1.14-10.788,1.189-15.928,3.014c2.849,0.411,5.759,0.592,8.619,0.153
		c3.945-0.614,8.049-0.701,11.78-2.268c8.838-3.518,15.922-10.739,20.087-19.204c2.197-4.405,4.082-8.997,5.342-13.758
		c1.353-6.816,2.361-13.72,2.69-20.662c-0.504-10.279-3.035-20.486-7.797-29.626c-4.082-8.18-9.736-15.396-15.216-22.656
		c-3.961-4.981-9.145-8.745-13.643-13.188C1135.45,1454.538,1132.321,1451.141,1128.151,1449.289 M849.69,1453.568
		c-1.759,0.389-3.824,0.816-4.783,2.537c-1.425,2.356-2.033,5.079-2.827,7.698c-0.915,3.463-2.504,6.756-2.871,10.361
		c-0.274,2.882-1.068,5.677-1.742,8.493c-1.348,7.117-1.134,14.405-0.964,21.615c0.449,2.838,0.378,6.038,2.093,8.476
		c2.888,0.362,5.781-0.197,8.646-0.499c3.161-0.258,6.296-0.718,9.424-1.211c0.137-14.465-0.701-29.072,2.208-43.335
		c0.69-5.074,3.238-9.61,4.268-14.591c-1.748-0.406-3.545-0.756-5.337-0.427C855.114,1453.13,852.353,1452.905,849.69,1453.568
		 M867.097,1490.032c0.049,2.937-0.548,5.83-0.51,8.772c-0.055,3.118,0.537,6.203,0.526,9.331c0.115,1.047-0.099,2.855,1.414,2.926
		c3.298,0.444,6.575-0.455,9.873-0.427c2.148-0.082,4.318,0.109,6.454-0.208c1.134-0.23,2.526-1.003,2.444-2.323
		c-0.258-3.49-1.359-6.937-0.877-10.46c0.51-3.353,0.345-6.739,0.592-10.098c0.811-6.564,1.068-13.221,2.745-19.643
		c0.542-2.592,1.573-5.134,1.523-7.802c-0.932-1.277-2.581-1.677-4.005-2.109c-4.235-1.085-8.558-1.803-12.892-2.383
		C868.429,1466.038,867.82,1478.334,867.097,1490.032 M1061.24,1472.033c2.022,2.438,4.915,4.279,8.219,3.868
		c-0.115-2.181-0.192-4.444-1.178-6.427c-0.466-0.948-1.304-2.077-2.499-1.622
		C1063.508,1468.115,1062.407,1470.351,1061.24,1472.033 M1080.51,1470.011l-0.471,0.016c-0.91,1.49,0.285,3.222,0.959,4.597
		c0.899,1.929,3.189,2.148,5.035,2.521c4.192,0.625,8.186,2.088,12.301,3.052c0.981,0.159,2.23,0.701,2.8-0.471
		c-0.411-2.323-1.019-5.353-3.644-6.087C1092.027,1471.72,1086.274,1470.46,1080.51,1470.011 M1068.697,1490.333
		c-0.323,0.29-0.652,0.586-0.997,0.882c1.452,5.731,3.671,11.249,4.729,17.084c2.871,12.509,2.488,25.423,2.433,38.179
		c0.011,2.789-0.625,5.567-0.296,8.372c1.857-4.066,2.619-8.493,3.452-12.843c1.008-6.69,1.923-13.424,1.649-20.202
		c-0.312-6.235-1.014-12.46-2.115-18.602c-0.57-3.249-0.953-6.597-2.372-9.599
		C1073.995,1491.171,1070.933,1491.133,1068.697,1490.333 M1082.981,1493.473c-0.219,4.323,1.151,8.498,1.31,12.805
		c0.515,3.874,1.057,7.742,1.008,11.665c0.657,5.287,0.449,10.624,0.482,15.944c0.022,3.649-0.718,7.243-1.348,10.832
		c-0.805,4.526-2.783,8.728-3.874,13.188c5.167-5.068,9.484-11.062,12.071-17.851c4.679-11.397,7.2-23.588,8.361-35.817
		c0-2.055,0.449-4.296-0.531-6.18c-1.529-0.992-3.353-1.331-5.085-1.753C1091.233,1495.39,1087.069,1494.579,1082.981,1493.473
		 M1128.497,1531.827c-0.696,4.137-2.559,8.142-2.109,12.421c2.153-3.802,3.008-8.12,4.17-12.273
		c1.896-6.586,1.266-13.517,1.008-20.262C1130.327,1518.381,1130.124,1525.213,1128.497,1531.827z"/>
	<path fill="#FFFFFF" d="M989.326,1200.623c4.778-0.685,9.506,0.701,14.147,1.66c0.022,1.222,0.044,2.455,0.077,3.693
		c-5.2-0.093-10.295-1.304-15.462-1.781C988.395,1203.017,987.803,1201.034,989.326,1200.623z"/>
	<path fill="#FFFFFF" d="M908.859,1214.37c-0.115-2.997,1.972-5.485,4.252-7.167c0.033,3.315,0,6.663,0.789,9.912
		c-0.268,0.323-0.794,0.959-1.057,1.282C911.024,1217.652,909.095,1216.523,908.859,1214.37z"/>
	<path fill="#FFFFFF" d="M1031.28,1218.835c-1.282-3.046-2.778-6.065-3.156-9.386c2.077,1.293,4.142,3.118,4.515,5.682
		C1032.94,1216.529,1031.899,1217.679,1031.28,1218.835z"/>
	<path fill="#FFFFFF" d="M944.474,1220.589c4.581-0.773,9.249-0.088,13.84-0.767c5.748-0.318,11.534-0.323,17.265,0.301
		c9.83-0.071,19.582,1.342,29.335,2.356c5.43,0.712,10.756,2.142,15.928,3.939c1.994,0.8,4.405,1.715,5.189,3.934
		c0.142,1.255-1.008,2.181-1.956,2.805c-2.005,1.151-4.235,1.819-6.4,2.608c-0.219-1.836-0.296-3.698-0.756-5.479
		c-1.583-1.699-3.989-2.252-6.137-2.898c-10.323-2.641-20.991-3.698-31.615-4.027c-4.723-0.663-9.495-0.318-14.24-0.395
		c-5.654,0.005-11.336-0.285-16.963,0.416c-5.211,0.038-10.35,0.959-15.528,1.43c-3.151,0.51-6.624,0.696-9.287,2.635
		c-1.589,2.131-0.279,4.92,0.564,7.095c-1.003,0.356-1.983,1.057-3.085,0.937c-1.49-0.422-2.898-1.419-3.578-2.833
		c-0.471-1.923-0.241-4.241,1.359-5.583c3.331-3.046,7.857-4.219,12.213-4.876C935.203,1221.328,939.871,1221.257,944.474,1220.589z
		"/>
	<path fill="#FFFFFF" d="M997.704,1248.456c0.592-4.022,0.247-8.394,2.652-11.895c0.69,0.394,1.359,0.838,2.016,1.331
		c0.526,3.364-0.137,6.767-0.384,10.131c-0.11,4.339-0.718,8.652-0.636,13.002c-0.882,8.673-0.521,17.418-0.466,26.125
		c0.696,4.767,0.219,9.61,0.931,14.383c0.931,8.224,2.411,16.383,3.874,24.53c2.148,12.191,5.759,24.092,10.394,35.56
		c1.945,5.759,5.074,10.991,7.731,16.432c4.624,9.09,9.665,17.95,14.931,26.683c2.34,4.619,5.813,8.52,8.301,13.046
		c4.312,8.383,9.167,16.536,12.487,25.396c1.047,1.962,1.085,4.164,1.101,6.345c-1.808-0.679-4.328-0.866-5.123-2.931
		c-1.008-2.34-1.704-4.816-2.964-7.035c-5.474-9.331-9.413-19.484-15.106-28.694c-5.09-8.652-10.553-17.095-14.974-26.119
		c-2.652-5.698-6.027-11.046-8.312-16.914c-5.846-14.602-11.095-29.582-13.413-45.203c-1.874-9.123-2.329-18.443-3.655-27.642
		c-0.575-3.917-0.674-7.868-0.767-11.808c-0.712-5.359-0.395-10.761-0.433-16.136
		C995.781,1260.784,997.293,1254.664,997.704,1248.456z"/>
	<path fill="#FFFFFF" d="M1005.276,1239.174c3.074,0.257,6.137,1.682,7.994,4.197c0.542,4.97,0.011,10.016-0.345,15.002
		c-0.099,9.227-0.06,18.459-0.005,27.692c0.625,7.205,0.926,14.481,2.444,21.582c1.129,6.882,2.707,13.709,4.931,20.322
		c1.616,3.824,2.871,7.786,4.274,11.693c7.589,16.421,17.78,31.576,29.708,45.154c2.8,3.742,6.63,6.509,9.583,10.115
		c5.95,6.498,11.791,13.133,16.827,20.382c3.435,5.052,5.528,10.838,8.4,16.207c3.824,7.167,5.435,15.194,7.758,22.914
		c-3.742,0.57-7.474-0.203-11.205-0.411c-4.17-0.438-8.356-0.833-12.443-1.764c-1.107-0.279-2.361-0.663-2.827-1.808
		c-1.238-2.537-1.896-5.315-3.227-7.797c-1.808-3.391-2.997-7.068-4.92-10.388c-2.12-3.66-3.556-7.66-5.665-11.32
		c-7.517-14.027-16.903-26.979-23.878-41.302c-3.556-6.438-6.405-13.221-9.747-19.763c-2.033-4.805-3.95-9.671-5.6-14.618
		c-2.351-7.742-4-15.67-6.098-23.473c-1.233-6.953-3.112-13.78-3.945-20.799c-0.794-5.649-2.164-11.238-2.181-16.969
		c-0.975-6.52-0.022-13.139-0.827-19.67c-0.329-2.767,0.329-5.506,0.373-8.257
		C1004.618,1250.439,1005.396,1244.829,1005.276,1239.174z"/>
	<path fill="#FFFFFF" d="M939.312,1288.037c1.77-0.515,2.115,1.627,2.411,2.899c1.479,7.846-0.427,15.72-1.545,23.478
		c-1.463,8.882-4.323,17.429-6.942,26.021c-3.123,8.542-6.18,17.161-10.465,25.215c-1.983,3.781-3.715,7.824-6.69,10.958
		c-1.72,1.781-5.304,2.257-6.296-0.548c0.323-2.603,1.775-4.865,3.035-7.09c3.381-5.671,6.695-11.408,9.282-17.495
		c2.74-6.865,5.704-13.66,7.687-20.793c3.375-11.408,5.123-23.231,5.923-35.083c0.236-2.082,0.394-4.219,1.183-6.17
		C937.258,1288.421,938.31,1287.966,939.312,1288.037z"/>
	<path fill="#FFFFFF" d="M884.861,1390.81c1.589-1.578,3.792-2.707,6.087-2.318c4.065,0.559,8.273,0.614,12.131,2.186
		c-4.592,5.348-10.399,9.621-14.262,15.605c-5.079,6.635-9.572,13.747-13.117,21.336c-1.583,3.019-3.118,6.345-6.027,8.323
		c-2.444,1.611-5.49,1.14-8.257,1.277c-2.318,0.011-4.581,0.69-6.904,0.537c-1.123-1.046-0.603-2.849-0.504-4.186
		c0.816-2.772,2.789-4.986,4.104-7.512c2.537-4.805,6.208-8.849,9.128-13.402c2.838-4.389,6.257-8.35,9.304-12.58
		C878.976,1396.7,881.907,1393.719,884.861,1390.81z"/>
	<path fill="#FFFFFF" d="M908.58,1393.686c1.326-1.326,3.309-0.893,4.959-0.603c4.252,0.893,8.476,2,12.492,3.704
		c-3.057,4.104-6.443,7.961-9.189,12.295c-3.835,5.107-6.865,10.734-9.868,16.355c-2.099,4.071-4.564,8.279-8.58,10.717
		c-4.208,2.285-9.106,1.079-13.627,1.847c-0.953,0.077-2.038,0.395-2.827-0.318c-1.068-0.811-0.69-2.372-0.482-3.474
		c0.855-2.164,2.433-3.929,3.534-5.95c4.575-8.865,10.147-17.172,15.774-25.396C903.095,1399.593,905.517,1396.311,908.58,1393.686z
		"/>
	<path fill="#FFFFFF" d="M960.977,1397.828c5.654-1.748,11.703-1.441,17.511-0.778c5.172,0.334,10.388,0.92,15.336,2.559
		c4.953,1.677,10.273,2.34,14.859,5.008c-1.682,1.753-3.671,4.088-6.411,3.474c-6.975-1.167-13.758-3.66-20.903-3.737
		c-5.846-0.005-11.693-0.093-17.533-0.071c-3.375-0.033-6.8,0.427-10.104-0.466C955.64,1401.313,957.854,1398.76,960.977,1397.828z"
		/>
	<path fill="#FFFFFF" d="M799.21,1445.388c2.904-3.14,5.507-6.794,9.523-8.597c-0.592,4.794-5.052,7.402-7.961,10.761
		c-4.581,5.474-9.424,10.766-13.468,16.673c-1.638,2.548-3.183,5.161-4.849,7.704c-3.512,5.715-5.649,12.109-7.95,18.377
		c-2.466,5.49-3.381,11.484-4.509,17.352c-1.277,6.438-0.953,13.024-0.992,19.555c0.285,6.805,1.836,13.517,4.055,19.949
		c1.611,4.367,3.797,8.493,5.879,12.651c2.548,4.4,5.435,8.75,9.419,11.988c1.194,1.008,2.351,2.06,3.49,3.145
		c-1.123,0.542-2.246,1.699-3.594,1.271c-3.54-1.145-6.06-4.087-8.465-6.756c-3.178-3.972-6.433-7.917-9.063-12.273
		c-5.452-9.665-9.2-20.525-9.32-31.697c-0.159-4.581,0.192-9.156,0.904-13.676c1.079-8.104,2.148-16.361,5.605-23.862
		c3.32-8.328,8.279-15.857,13.577-23.034C786.718,1457.814,793.37,1451.957,799.21,1445.388z"/>
	<path fill="#FFFFFF" d="M1128.151,1449.289c4.17,1.852,7.298,5.249,10.723,8.158c4.498,4.444,9.682,8.208,13.643,13.188
		c5.479,7.26,11.134,14.476,15.216,22.656c4.761,9.139,7.293,19.347,7.797,29.626c-0.329,6.942-1.337,13.846-2.69,20.662
		c-1.26,4.761-3.145,9.353-5.342,13.758c-4.164,8.465-11.249,15.687-20.087,19.204c-3.731,1.567-7.835,1.655-11.78,2.268
		c-2.86,0.438-5.77,0.257-8.619-0.153c5.139-1.825,10.646-1.874,15.928-3.014c6.361-1.868,12.082-5.638,16.651-10.41
		c2.219-2.373,3.49-5.419,4.822-8.328c2.466-5.655,4.882-11.572,4.712-17.851c0.679-6.191,0.564-12.432,0.373-18.646
		c-0.521-4.931-1.518-9.819-2.97-14.558c-3.534-9.928-8.674-19.237-15.013-27.642c-3.151-4.641-6.843-8.865-10.191-13.358
		C1137.356,1459.288,1131.182,1455.535,1128.151,1449.289z"/>
	<path fill="#FFFFFF" d="M849.69,1453.568c2.663-0.663,5.424-0.438,8.115-0.882c1.792-0.329,3.589,0.022,5.337,0.427
		c-1.03,4.981-3.578,9.517-4.268,14.591c-2.909,14.262-2.071,28.87-2.208,43.335c-3.129,0.493-6.263,0.953-9.424,1.211
		c-2.866,0.301-5.759,0.86-8.646,0.499c-1.715-2.438-1.644-5.638-2.093-8.476c-0.17-7.211-0.384-14.498,0.964-21.615
		c0.674-2.816,1.468-5.611,1.742-8.493c0.367-3.605,1.956-6.898,2.871-10.361c0.794-2.619,1.403-5.342,2.827-7.698
		C845.865,1454.384,847.931,1453.957,849.69,1453.568z"/>
	<path fill="#FFFFFF" d="M867.097,1490.032c0.723-11.698,1.331-23.993,7.287-34.426c4.334,0.581,8.657,1.299,12.892,2.383
		c1.425,0.433,3.074,0.833,4.005,2.109c0.049,2.668-0.981,5.211-1.523,7.802c-1.677,6.422-1.934,13.079-2.745,19.643
		c-0.247,3.359-0.082,6.745-0.592,10.098c-0.482,3.523,0.619,6.969,0.877,10.46c0.082,1.32-1.31,2.093-2.444,2.323
		c-2.137,0.318-4.307,0.126-6.454,0.208c-3.298-0.027-6.575,0.871-9.873,0.427c-1.512-0.071-1.299-1.879-1.414-2.926
		c0.011-3.129-0.581-6.213-0.526-9.331C866.549,1495.862,867.146,1492.969,867.097,1490.032z"/>
	<path fill="#FFFFFF" d="M1061.24,1472.033c1.167-1.682,2.268-3.918,4.542-4.181c1.194-0.455,2.033,0.674,2.499,1.622
		c0.986,1.984,1.063,4.246,1.178,6.427C1066.155,1476.312,1063.262,1474.471,1061.24,1472.033z"/>
	<path fill="#FFFFFF" d="M1080.51,1470.011c5.764,0.449,11.517,1.71,16.98,3.627c2.625,0.734,3.233,3.764,3.644,6.087
		c-0.57,1.172-1.819,0.63-2.8,0.471c-4.115-0.964-8.109-2.427-12.301-3.052c-1.846-0.373-4.137-0.592-5.035-2.521
		c-0.674-1.375-1.868-3.107-0.959-4.597L1080.51,1470.011z"/>
	<path fill="#FFFFFF" d="M1068.697,1490.333c2.236,0.8,5.298,0.838,6.482,3.271c1.419,3.003,1.803,6.35,2.372,9.599
		c1.101,6.142,1.803,12.367,2.115,18.602c0.274,6.778-0.641,13.512-1.649,20.202c-0.833,4.35-1.594,8.778-3.452,12.843
		c-0.329-2.805,0.307-5.583,0.296-8.372c0.055-12.755,0.438-25.67-2.433-38.179c-1.057-5.835-3.276-11.353-4.729-17.084
		C1068.045,1490.919,1068.374,1490.624,1068.697,1490.333z"/>
	<path fill="#FFFFFF" d="M1082.981,1493.473c4.088,1.107,8.252,1.918,12.394,2.833c1.731,0.422,3.556,0.762,5.085,1.753
		c0.981,1.885,0.531,4.126,0.531,6.181c-1.162,12.229-3.682,24.421-8.361,35.817c-2.586,6.789-6.904,12.783-12.071,17.851
		c1.09-4.46,3.068-8.663,3.874-13.188c0.63-3.589,1.37-7.183,1.348-10.832c-0.033-5.32,0.175-10.657-0.482-15.944
		c0.049-3.923-0.493-7.791-1.008-11.665C1084.132,1501.971,1082.762,1497.796,1082.981,1493.473z"/>
	<path fill="#FFFFFF" d="M1128.497,1531.827c1.627-6.613,1.83-13.446,3.068-20.114c0.257,6.745,0.888,13.676-1.008,20.262
		c-1.162,4.153-2.016,8.471-4.17,12.273C1125.938,1539.969,1127.801,1535.964,1128.497,1531.827z"/>
	<path d="M1797.2,47.825c6.487,0.844,13.09-0.099,19.363-1.792c3.578-0.888,6.559-3.282,8.696-6.23
		c3.101-3.682,4.772-8.279,5.715-12.947c1.644-5.742,0.685-11.819,2.12-17.599c0.592-2.383,1.068-4.8,1.288-7.254
		c-1.973,0.132-4.115-0.033-5.83,1.112c-2.433,1.529-4.279,3.764-6.274,5.781c-2.504,2.641-5.457,4.772-8.241,7.096
		c-4.548,3.929-10.279,6.054-15.139,9.534c-4.033,2.937-8.396,4.955-12.568,7.695c-4.511,2.963-8.63,6.485-12.563,10.169
		c-3.091,2.896-6.078,5.9-9.114,8.855c-1.618,1.574-3.246,3.138-4.913,4.661c-1.303,1.192-3.197,3.518-4.853,3.915
		c-1.057-2.631,5.524-8.345,7.076-10.334c4.486-5.749,9.773-10.866,15.619-15.221c5.807-4.325,12.253-7.415,18.505-10.926
		c3.025-1.699,6.942-3.107,7.841-6.882c-8.467,0.802-16.559,3.991-24.506,6.881c-8.282,3.011-16.457,6.307-24.63,9.601
		c-9.184,3.702-18.418,7.423-26.979,12.444c-8.037,4.714-13.057,13.378-17.786,21.214c-3.211,5.2-5.364,10.958-8.454,16.218
		c-1.961,3.304-3.841,6.685-6.257,9.687c0.526-4.789,3.101-8.947,4.953-13.292c2.438-4.712,3.885-9.841,6.043-14.673
		c1.731-4.153,4.137-8.224,3.961-12.881c-1.989,0.362-4.115,0.521-5.819,1.699c-2.055,1.381-3.824,3.129-5.781,4.63
		c-4.887,3.775-9.978,7.287-15.265,10.471c-2.499,1.452-4.74,3.277-7.03,5.019c-4.668,3.315-9.556,6.312-14.564,9.079
		c-3.824,2.882-8.416,5.002-11.062,9.172c-3.293,4-4.75,9.024-6.63,13.753c-1.874,4.816-3.293,9.83-5.802,14.372
		c-2.351,4.246-4.849,8.602-8.75,11.627c0.838-7.276,7.539-11.725,9.676-18.465c1.594-5.068,4.148-9.906,4.553-15.281
		c-5.89,1.145-10.186,5.589-15.194,8.515c-7.726,5.419-15.659,10.542-23.073,16.383c-4.268,3.397-9.128,6.131-12.701,10.328
		c-3.775,4.12-5.512,9.561-7.238,14.755c-3.266,9.49-3.994,19.615-7.123,29.144c-3.255,9.906-5.622,20.459-12.01,28.952
		c-2.822,3.54-4.876,7.786-8.608,10.515c0.268-1.83,0.647-3.737,1.918-5.156c3.326-3.863,5.145-8.684,7.085-13.325
		c2.022-5.474,4.438-10.816,5.939-16.47c1.578-5.671,2.63-11.473,3.589-17.276c0.74-4.997,2.581-9.725,3.863-14.596
		c1.282-4.756,3.435-9.21,4.827-13.933c-2.827,0.931-5.49,2.383-7.583,4.52c-3.578,3.572-7.638,6.597-11.249,10.125
		c-3.644,3.172-7.139,6.652-11.495,8.854c-3.178,1.594-6.202,3.611-9.693,4.471c-2.038,0.559-4.263,0.877-5.912,2.307
		c-2.181,1.83-4.049,4.005-6.274,5.786c-3.972,3.408-9.326,4.63-13.21,8.158c-5.227,4.668-8.323,11.15-11.019,17.495
		c-2.367,5.123-2.718,10.827-3.95,16.262c-1.414,7.452-3.09,14.865-3.896,22.421c-0.537,4.75-0.69,9.621-2.362,14.158
		c-1.825,4.964-3.704,9.917-5.238,14.986c-1.973,6.624-4.553,13.04-6.772,19.582c-2.926,8.394-6.893,16.585-13.029,23.117
		c0.937-5.315,4.329-9.649,6.427-14.509c4.455-10.761,8.186-21.807,11.309-33.023c1.534-5.742,4.219-11.183,4.827-17.144
		c0.46-4.471,1.047-8.931,1.425-13.407c0.805-8.043,2.778-15.983,2.685-24.103c-0.904,0.362-1.863,0.592-2.652,1.167
		c-4.09,2.982-7.244,7.239-10.765,10.832c-4.016,4.098-8.107,8.123-12.27,12.072c-5.493,5.21-11.111,10.288-16.848,15.227
		c-2.646,2.278-5.874,4.387-8.092,7.077c-1.981,2.404-4.667,4.07-6.635,6.504c-2.75,3.403-5.446,6.937-7.106,11.03
		c-2.274,4.608-3.808,9.665-7.085,13.72c0.044-4.422,1.49-8.652,1.89-13.029c-1.359,0.636-2.783,1.2-3.923,2.203
		c-3.764,3.359-6.898,7.359-10.728,10.646c-2.75,2.362-5.38,4.86-7.758,7.589c-3.408,3.912-7.879,6.712-11.265,10.641
		c-2.663,3.068-5.167,6.301-7.205,9.813c-1.885,3.151-1.879,6.915-2.214,10.46c-0.8,7.66,0.4,15.396-0.586,23.051
		c-1.709-0.729-4.498-1.041-4.487-3.446c0.022-5.139,0.663-10.268,0.937-15.402c0.126-4.246,1.458-8.356,1.403-12.608
		c-2.126,0.625-4.307,1.364-5.945,2.92c-1.826,1.734-2.473,3.84-3.812,5.823c-1.793,2.654-4.589,4.994-6.759,7.357
		c-4.51,4.909-9.021,9.818-13.531,14.727c-8.405,9.148-16.809,18.297-25.216,27.445c-7.309,7.954-14.946,15.893-19.725,25.708
		c-2.301,4.718-5.293,9.063-7.643,13.758c-1.2,2.394-1.375,5.123-2.323,7.605c-0.981,2.52-3.03,4.537-3.644,7.211
		c-0.438,1.901,0.636,3.655,1.441,5.298c1.698,3.107,1.89,6.717,2.975,10.043c-7.238,0.992-13.829,4.553-19.341,9.227
		c-2.016,1.666-2.504,4.383-3.983,6.433c-1.359,1.529-3.233,2.444-4.915,3.561c0.586,1.09,1.134,2.203,1.66,3.337
		c-0.262-0.565-7.708,1.936-8.48,2.175c-2.582,0.799-4.647,2.119-6.869,3.691c-4.596,3.252-8.799,7.034-12.684,11.104
		c-7.968,8.349-14.594,17.853-21.149,27.317c-3.134,4.525-6.29,9.09-8.45,14.153c-3.984,9.336-2.029,17.714,0.178,27.177
		c1.616,6.816,3.868,13.468,6.471,19.966c1.425,3.32-0.636,6.575-2.751,9.024c-0.74-1.403-1.49-2.794-2.077-4.263
		c-2.29-6.328-4.898-12.553-6.668-19.057c-1.189-4.487-1.408-9.139-1.748-13.742c-0.252-3.666,0.4-7.287,0.871-10.904
		c0.219-1.463-0.312-2.871-0.718-4.246c-3.09,2.657-4.652,6.493-6.997,9.731c-2.652,4.268-6.306,7.868-8.454,12.449
		c-2.34,4.904-5.89,9.057-8.761,13.638c-3.052,4.805-6.334,9.463-9.199,14.383c-1.594,2.751-3.331,5.408-5.052,8.076
		c-3.331,5.161-5.983,10.728-8.241,16.432c-1.463,3.929-2.8,8.005-2.904,12.24c-0.186,1.967,0.055,4.323-1.518,5.819
		c-2.411,2.356-5.43,4.022-7.638,6.608c-3.003,3.517-6.275,6.869-8.76,10.805c-2.58,4.085-4.53,8.534-6.326,13.008
		c-2.037,5.074-3.915,10.231-6.425,15.098c-1.134,2.199-2.419,5.169-4.274,6.854c-1.816,1.65-4.414,2.748-6.41,4.222
		c-4.257,2.986-7.961,6.652-11.928,9.994c-3.572,3.019-6.69,6.569-9.167,10.542c-1.983,3.244-4.882,5.775-6.964,8.947
		c-4.438,6.843-8.635,13.873-12.076,21.276c-1.989,4.307-1.151,9.375-3.43,13.577c-1.49,2.849-3.287,5.528-4.778,8.383
		c-4.164,8.536-10.098,16.016-14.58,24.371c-2.422,4.23-3.408,9.079-4.318,13.818c-0.838,5.205-1.589,10.438-1.94,15.703
		c-0.225,3.287,0.526,6.531,0.499,9.813c-0.005,3.222-0.225,6.482,0.449,9.665c0.203,1.649,0.931,3.605-0.301,5.046
		c-1.227,1.89-3.457,2.559-5.512,3.112c0.066-4.641,0.953-9.194,1.962-13.703c1.052-4.498,0.783-9.15,0.586-13.72
		c-0.318-0.022-0.953-0.066-1.271-0.082c-0.97,1.742-1.923,3.496-2.866,5.26c-1.726,3.326-4.142,6.268-5.496,9.791
		c-1.923,4.937-4.022,9.808-6.307,14.596c-2.274,4.663-4.115,9.539-6.789,14.005c-2.509,4.153-4.12,8.756-5.742,13.303
		c-1.249,3.474-1.194,7.2-1.222,10.843c-0.148,4.268,1.72,8.257,1.885,12.503c1.66,9.506,4.931,18.635,8.268,27.664
		c-3.605-2.153-5.255-6.137-7.731-9.326c-3.616-4.575-4.487-10.504-5.879-15.988c-0.986-3.578-0.027-7.726-2.444-10.816
		c-2.942,3.967-4.394,8.739-6.854,12.98c-2.805,4.811-3.709,10.383-5.211,15.67c-1.112,5.583-4.301,10.75-3.835,16.607
		c-0.055,6.312,3.435,11.791,5.046,17.72c-0.499-0.301-0.986-0.592-1.468-0.882c-3.72-2.011-4.213-6.652-6.169-10.021
		c-1.688,2.542-3.353,5.183-4.06,8.191c-0.773,2.898-0.137,5.923-0.537,8.865c-0.384,2.362-1.699,4.416-2.657,6.581
		c-1.211,2.586-1.715,5.435-2.937,8.021c-1.907,4-3.54,8.126-5.419,12.142c-2.214,4.778-2.674,10.268-1.457,15.38
		c1.627,6.811,5.183,12.909,8.131,19.199c1.447,3.178,3.726,5.901,5.156,9.095c0.597,1.112-0.049,2.323-0.34,3.435
		c-1.836-1.578-3.507-3.37-4.696-5.479c-3.008-5.178-6.186-10.246-9.232-15.396c-1.507-2.471-2.641-5.315-4.959-7.161
		c-2.904-1.956-6.657-1.731-9.884-0.833c1.512,3.381,3.994,6.23,5.337,9.698c1.501,3.742,3.008,7.528,3.688,11.528
		c0.992,5.715,0.849,11.544,0.723,17.32c-0.112,5.13-0.699,10.048-0.22,15.215c0.507,5.47,1.58,10.88,3.016,16.179
		c1.907,7.04,4.445,13.887,7.152,20.653c2.467,6.167,4.389,12.428,7.922,18.109c2.342,3.766,5.138,7.216,7.744,10.797
		c2.574,3.536,4.279,7.724,6.877,11.146c1.868,2.378,2.953,5.255,3.315,8.252c-2.142-1.496-4.005-3.32-5.791-5.211
		c-2.849-3.003-6.816-4.476-10.082-6.92c-2.537-1.899-5.247-4.003-7.617-6.26c-2.518-2.399-4.483-5.37-7.27-7.476
		c-0.734,1.156-2.066,2.274-1.748,3.808c0.619,3.348,2.603,6.23,4.35,9.095c2.153,3.496,6.601,6.094,9.732,8.703
		c4.982,4.151,10.42,7.979,14.075,13.4c0.652,2.109,0.219,4.509,1.337,6.509c0.882,1.594,1.627,3.271,2.159,5.03
		c-6.082-3.079-12.005-6.526-17.44-10.641c-3.824-2.981-4.597-8-6.958-11.939c-1.627-0.389-1.885,1.742-1.901,2.915
		c0.022,4.52,0.268,9.457,2.97,13.276c2.8,3.189,6.641,5.183,10.197,7.402c2.575,1.583,4.372,4.175,5.534,6.926
		c1.096,2.641,0.762,5.616-0.033,8.301c-3.123,10.438-5.753,21.084-10.301,31.028c8.663,1.216,17.325,2.674,25.768,5.002
		c2.701,0.674,5.507,0.756,8.246,1.244c-1.14-0.614-2.279-1.216-3.413-1.819c1.052-5.687,2.937-11.156,4.816-16.602
		c3.156-9.923,5.961-19.971,9.747-29.681c0.822-2.137,1.079-4.493,2.219-6.487c2.027-2.466,5.594-2.159,8.339-1.304
		c3.07,0.702,5.591,3.969,8.088,5.77c2.848,2.055,5.641,4.271,8.169,6.715c2.229,2.154,4.119,4.625,6.717,6.385
		c7.778,5.262,19.17,6.302,28.009,3.326c2.213-0.745,4.003-2.864,4.919-4.945c-5.576,1.119-11.289,2.244-16.914,1.399
		c-5.172-0.777-9.987-3.196-14.219-6.269c-3.318-2.409-6.313-5.222-9.226-8.098c-1.24-1.225-2.061-1.919-3.605-2.589
		c-0.84-0.364-4.759-1.341-5.056-2.182c-0.63-1.786,0.915-3.912,2.783-3.956c1.556-0.11,3.123,0.17,4.597,0.685
		c3.079,1.052,5.013,4.192,8.323,4.761c7.824,1.501,15.676,3.726,23.719,3.249c4.876-0.526,9.698-1.507,14.547-2.274
		c5.846-0.866,11.95-0.592,17.55-2.734c3.507-1.353,5.452-4.75,7.632-7.578c2.909-3.764,4.931-8.12,7.923-11.819
		c2.033-2.723,4.389-5.26,5.934-8.306c0.882-1.534,0.466-3.556-0.811-4.712c-1.962-0.794-4.131-0.674-6.191-0.833
		c1.112-2.942,2.038-6.274,4.811-8.115c2.197-1.49,4.005-3.54,6.35-4.783c6.959-1.288,14.136-0.099,21.073-1.583
		c9.435-1.315,18.898-4.46,26.24-10.712c4.159-3.408,5.786-8.723,7.896-13.457c1.66-4.635,3.945-9.024,5.413-13.725
		c1.255-4.082,3.424-7.791,5.413-11.545c2.104-4.066,5.468-7.452,6.712-11.95c-2.17,0.263-4.438,0.625-6.213,2.011
		c-2.915,2.159-5.633,4.581-8.558,6.739c-3.638,2.964-7.917,5.112-11.117,8.602c-1.463,1.633-3.337,2.816-5.397,3.545
		c1.266-5.282,6.383-7.939,9.556-11.934c2.734-3.463,6.235-6.23,8.794-9.84c2.772-3.956,7.737-5.101,11.55-7.72
		c5.792-3.72,10.635-8.701,15.062-13.923c5.55-6.345,6.959-14.985,11.347-22.015c2.855-5.063,6.186-9.972,7.797-15.616
		c1.189-4.022,1.731-8.224,3.326-12.125c1.545-3.671,2.422-7.583,4.126-11.188c1.857-4.044,3.315-8.263,5.38-12.208
		c1.37-2.833,4.723-3.868,7.638-4.071c2.718,0.252,5.052,1.972,7.764,2.318c2.345,0.29,4.767,0.345,7.095-0.137
		c2.992-0.877,5.079-3.561,8.142-4.329c2.761-0.745,5.567-1.731,7.589-3.868c5.912-5.835,10.723-12.651,16.12-18.941
		c3.83-4.449,6.685-9.654,10.728-13.928c2.762-2.893,5.479-5.83,8.372-8.597c2.685-2.449,6.181-3.83,8.652-6.542
		c-1.562-0.137-3.189-0.17-4.619,0.575c-4.531,2.055-9.358,3.507-13.566,6.224c-4.915,3.134-10.24,5.66-15.895,7.134
		c3.337-3.074,7.578-4.794,11.386-7.161c4.953-2.992,10.049-5.759,15.254-8.284c3.572-1.699,6.789-4.115,9.342-7.139
		c3.151-3.304,5.26-7.386,7.868-11.095c5.38,2.142,10.668,4.515,16.016,6.75c7.408,2.975,15.303,5.353,23.374,4.838
		c4.887-0.236,9.348-2.46,14.092-3.392c4.942-0.926,8.712-4.575,11.972-8.158c2.685-3.298,5.649-6.553,6.969-10.684
		c-2.63,1.096-4.959,2.745-7.243,4.416c-2.011,1.444-4.331,2.36-6.693,3.058c-2.346,0.693-4.818,1.638-7.23,1.972
		c-2.421,0.335-4.873,0.482-7.315,0.474c-4.892-0.015-9.781-0.689-14.498-1.985c-2.943-0.809-5.819-1.86-8.588-3.146
		c-1.408-0.654-2.787-1.368-4.132-2.141c-1.315-0.756-1.805-1.692-2.665-2.928c5.227,0.153,10.35,1.468,15.594,1.485
		c2.654-0.066,5.305-0.208,7.953-0.391c1.724-0.12,3.431-0.094,5.127-0.393c1.96-0.346,3.921-0.693,5.881-1.039
		c3.079-0.557,6.162-1.089,9.243-1.633c1.513-0.267,2.634-0.547,3.99-1.242c1.394-0.713,2.763-1.478,4.186-2.134
		c4.246-1.961,7.978-4.8,11.786-7.484c4.137-3.134,7.205-7.397,10.958-10.925c2.761-2.416,6.608-0.767,9.857-0.86
		c6.58,0.027,13.172,0.148,19.752-0.071c5.49-0.674,11.04-0.236,16.536-0.844c7.096-0.625,14.262-0.526,21.265-1.967
		c11.605-1.348,22.563-5.627,33.291-10.043c4.066-1.764,7.786-4.197,11.594-6.443c3.507-2.077,6.734-4.586,9.747-7.32
		c3.063-2.789,6.422-5.359,8.756-8.838c2.646-4,5.517-7.879,7.6-12.219c2.405-5.123,8.076-7.15,11.813-11.057
		c5.117-5.315,10.164-10.728,14.717-16.542c3.704-4.564,7.638-8.98,10.712-14.01c2.466-3.896,4.339-8.12,6.427-12.219
		c1.496-2.964,2.635-6.098,3.403-9.326c4.799-20.187,6.149-44.181-7.697-61.259c-4.806-5.927-11.083-10.646-18.097-13.646
		c-8.422-3.602-16.894-2.42-25.677-0.844c-0.241,1.014-0.477,2.033-0.767,3.041c4.811,1.134,9.764,1.32,14.624,2.12
		c12.196,1.898,23.112,10.668,28.997,21.341c4.384,7.951,6.171,17.288,5.13,26.3c-1.063,9.207-1.89,18.207-5.411,26.99
		c-1.644,3.912-3.49,7.737-5.364,11.545c-4.252,8.739-10.816,16.059-17.418,23.078c-3.298,3.052-6.082,7.008-10.531,8.449
		c0.447-0.145-1.657-16.352-1.921-18.192c-0.77-5.358-2.388-10.587-4.718-15.471c-6.062-12.705-17.134-23.79-31.101-27.117
		c-3.222-0.768-6.589-1.127-9.854-0.564c-3.265,0.562-6.43,2.108-8.542,4.661c8.331,0.17,16.566,0.412,24.389,3.459
		c7.091,2.762,12.439,8.529,15.618,15.361c5.26,11.305,6.326,24.839,2.645,36.698c-1.189,3.83-2.378,7.775-4.794,11.035
		c-1.77,2.444-4.734,3.457-7.353,4.696c-12.789,6.047-25.557,10.673-39.533,12.997c-14.667,2.439-29.498,3.896-44.359,4.36
		c-5.38,0.168-10.765,0.207-16.148,0.114c-1.602-0.027-5.375,0.596-6.367-0.742c-1.091-1.473-0.712-5.37-1.402-7.234
		c-0.86-2.301-3.118-3.578-4.969-4.986c3.961-1.331,8.136-2.148,11.835-4.186c2.192-1.211,4.312-2.564,6.389-3.967
		c3.808-2.564,6.69-6.328,8.668-10.427c1.414-2.959,1.315-6.29,1.425-9.484c-0.022-2.186,1.622-3.808,3.003-5.298
		c4.038-4.104,6.833-9.249,9.052-14.52c1.375-3.238,2.772-6.58,2.838-10.147c0.208-4.044-0.822-8.191-3.09-11.561
		c-0.756-1.31-2.4-1.331-3.687-1.682c-1.271,5.83-2.4,11.709-4.246,17.396c-1.211,3.271-3.501,5.978-5.266,8.953
		c-2.131,3.616-5.408,6.301-8.427,9.145c-3.709,3.397-8.438,5.539-13.336,6.548c-4.57,0.921-9.134,2.4-13.846,2.038
		c-6.312-0.241-12.854-1.655-17.994-5.501c1.912-1.742,3.989-3.331,5.671-5.309c2.055-2.581,2.866-5.857,4.4-8.734
		c2.005-4.263,5.627-8.295,4.975-13.325c-0.121-2.197-2.855-1.392-4.268-1.238c-6.443,1.353-13.084-0.586-18.766-3.611
		c-8.602-5.222-15.325-12.876-23.44-18.75c-3.589-3.129-7.375-6.082-10.471-9.715c3.759,0.526,6.871,2.762,10.158,4.46
		c11.364,6.033,22.503,12.619,34.563,17.183c3.611,1.764,7.37,3.178,11.298,4.044c6.449,1.868,13.007,3.655,19.758,3.956
		c5.194,0.279,10.399-0.559,15.347-2.115c2.679-0.882,4.959-2.586,7.342-4.038c7.183-4.12,11.643-11.435,15.555-18.476
		c2.296-3.731,2.734-8.471,1.518-12.635c-0.762-2.603-2.915-4.35-5.107-5.731c-0.296,0.29-0.882,0.871-1.173,1.162
		c1.2,7.238-0.038,14.827-3.249,21.402c-1.709,3.698-4.959,6.334-7.928,8.991c-2.493,2.214-6.011,2.263-9.156,2.208
		c-4.734-0.066-9.123-2.06-13.331-4.016c-4.887-2.301-9.09-5.808-12.734-9.747c-2.663-3.063-5.156-6.416-6.257-10.383
		c3.698-1.057,7.589-1.737,10.964-3.682c3.244-1.929,6.137-4.575,7.917-7.939c5.233-9.715,9.391-19.977,14.838-29.582
		c1.425-2.981,3.676-6.345,2.098-9.709c-4.186,2.668-8.235,5.753-13.183,6.86c-6.772,2.553-14.103,1.085-20.821-0.844
		c-5.665-1.6-10.706-4.767-15.583-7.978c-3.863-2.964-8.076-5.479-11.594-8.882c0.455-0.312,0.904-0.636,1.353-0.97
		c6.854,2.663,13.835,5.019,20.952,6.876c5.205,1.233,10.405,2.855,15.818,2.74c6.202,0.323,12.52-0.438,18.295-2.811
		c3.287-1.375,5.846-4.022,7.901-6.871c1.353-1.846,2.011-4.104,3.364-5.945c1.929-0.959,4.23-0.652,6.328-0.981
		c3.255-0.263,5.934-2.285,8.838-3.551c2.477-1.129,5.2-1.6,7.627-2.855c2.509-1.381,4.531-3.468,6.46-5.556
		c2.597-2.942,5.134-6.345,5.38-10.41c0.247-4.438-0.504-8.876-1.507-13.183c-1.863,0.718-4.049,1.26-5.129,3.118
		c-1.008,1.901-1.096,4.12-1.501,6.202c-0.57,3.923-1.627,7.972-4.422,10.947c-2.345,3.074-6.082,4.822-9.923,4.876
		c-6.175,0.06-12.432-1.797-17.358-5.572c-3.359-2.625-6.958-5.266-8.838-9.221c3.266-0.137,6.537-0.005,9.808,0.033
		c4.827,0.022,9.764-1.025,13.851-3.682c4.378-2.707,7.112-7.205,9.967-11.336c2.449-4.093,5.15-8.137,6.493-12.761
		c0.493-1.43,0.921-2.964,1.978-4.093c3.112-0.115,6.093,0.97,9.134,1.496c3.77,0.658,7.463,1.731,11.26,2.257
		c12,1.023,24.004,1.559,35.886-0.817c14.687-2.937,29.273-9.439,40.335-19.681c3.244-2.871,5.638-6.509,8.032-10.071
		c3.32-4.707,5.704-9.972,8.608-14.931c1.885-3.594,4.323-6.915,5.742-10.739c0.718-1.605,0.126-3.337-0.181-4.959
		c-1.808,1.008-3.567,2.241-4.531,4.137c-2.488,4.482-5.896,8.339-8.778,12.558c-6.906,10.184-19.271,16.795-30.748,20.255
		c-12.319,3.714-25.564,4.41-38.18,1.833c-2.472-0.505-4.884-0.725-7.369-1.245c-6.487-1.359-12.887-3.129-19.089-5.479
		c-3.611-1.545-7.495-2.614-10.635-5.074c1.874-0.077,3.764-0.049,5.644-0.192c3.282-0.29,6.394-1.868,8.667-4.24
		c2.081-2.171,3.347-2.988,6.368-2.782c3.189,0.218,6.383,0.365,9.579,0.435c6.532,0.141,13.074-0.043,19.583-0.632
		c12.942-1.171,25.786-3.963,37.817-8.938c4.242-1.754,8.445-3.821,11.792-6.962s5.771-7.514,5.685-12.103
		c-0.022-1.174-0.328-2.523-1.378-3.048c-1.268-0.633-2.822,0.403-3.4,1.697c-0.578,1.294-0.523,2.769-0.764,4.165
		c-0.625,3.629-3.276,6.654-6.404,8.597c-9.609,5.971-21.41,7.315-32.501,6.955c-5.669-0.184-11.318-0.839-16.908-1.786
		c-2.046-0.346-18.129-3.397-18.346-2.803c0.926-2.526,2.115-4.942,3.216-7.391c1.633-4.608,3.792-9.013,5.813-13.451
		c3.057-0.86,6.323-0.258,9.452-0.805c7.112-0.608,13.621-3.693,20.262-6.038c5.14-1.923,9.808-4.975,13.818-8.701
		c2.493-2.329,5.118-4.789,6.301-8.076c-0.148-0.121-0.444-0.362-0.592-0.482c-1.753,0.712-3.397,1.666-5.014,2.635
		c-0.477-0.91-0.948-1.808-1.408-2.696c-5.128,2.422-7.463,8.164-12.438,10.805c-5.32,2.849-11.38,4.466-17.429,4.268
		c-6.104-0.175-12.29,1.452-18.317-0.115c3.036-2.351,6.909-3.041,10.164-4.986c4.498-2.482,7.863-6.454,11.523-9.961
		c1.112-1.173,2.734-1.529,4.29-1.655c8.021-0.756,16.076-1.123,24.125-1.529c3.512-0.296,6.953-1.118,10.41-1.781
		c10.438-2.099,20.487-6.619,28.629-13.528c2.97-2.52,6.15-4.846,8.289-8.173c1.735-2.698,0.378-3.157-1.778-5.109
		c-3.672-3.672-7.673-6.417-12.04-9.167c-1.805-1.137-2.803-1.804-0.398-2.59c1.883-0.615,3.937-0.884,5.859-1.378
		c7.391-1.899,14.832-4.575,20.619-9.724c8.152-7.253,12.375-19.115,12.442-29.846c0.006-0.976-0.027-1.983-0.43-2.873
		c-0.402-0.889-1.261-1.64-2.237-1.628c-1.019,0.012-1.878,0.843-2.265,1.786c-0.387,0.943-0.405,1.989-0.46,3.006
		c-0.353,6.556-2.472,13.009-6.075,18.497c-2.752,4.192-6.457,7.887-11.055,9.887c-4.508,1.96-9.609,2.183-14.483,1.553
		c-18.502-2.392-29.957-16.319-40.117-30.609c-0.696-1.271-1.972-2.745-1.282-4.257c5.008,0.049,9.676,2.383,14.668,2.635
		c4.394-0.066,8.356-2.635,11.227-5.802c2.866-3.2,5.501-6.597,8.038-10.06c2.504-3.375,4.301-7.249,7.15-10.367
		c2.948-3.288,6.4-6.296,8.213-10.421c1.036-2.153,0.619-4.603,0.51-6.893c0.037,0.773-5.554,3.703-6.336,4.183
		c-2.395,1.471-4.846,2.854-7.355,4.121c-4.572,2.309-8.922,3.529-14.099,3.884c-6.368,0.437-12.823-0.407-18.863-2.47
		c-6.116-2.09-11.635-5.544-17.677-7.866c-4.12-1.638-8.427-3.052-11.972-5.813c0.414,0.322,2.882,0.042,3.532,0.127
		c1.051,0.138,2.177,0.264,3.206,0.459c2.642,0.5,5.239,1.338,7.875,1.897c5.35,1.135,10.77,1.94,16.218,2.412
		c12.248,1.062,23.868,0.001,35.834-2.134c4.931-1.244,10.087-2.416,14.366-5.293c9.385-7.49,11.111-20.327,19.111-28.796
		c2.132-2.257,4.12-5.221,3.424-8.247c-7.742,5.679-17.038,9.139-26.573,10.265c-9.796,1.158-19.858-0.173-29.053-3.727
		c-2.329-0.901-4.604-1.944-6.804-3.126c-1.049-0.563-5.121-2.33-2.729-3.264c1.643-0.641,6.081,1.21,7.799,1.604
		c2.654,0.61,5.311,1.216,8.013,1.573c11.291,1.492,24.494,2.157,35.441-1.492c2.499-0.844,4.789-2.345,7.446-2.707
		c2.778-0.373,5.66-0.192,8.367-1.068c3.123-1.025,5.622-3.293,8.613-4.613c3.238-1.496,6.865-1.742,10.219-2.915
		c3.32-1.145,6.553-2.772,9.117-5.216c4.279-4.142,8.323-8.558,11.758-13.429c1.775-3.068,3.194-6.449,3.726-9.967
		c0.4-2.126-1.83-3.205-3.14-4.405c-2.931,3.468-4.329,7.983-7.578,11.199c-2.871,2.942-6.443,5.139-10.191,6.772
		c-3.518,1.551-7.446,1.194-11.177,1.036c-9.013-0.8-17.895-3.025-26.24-6.509c-4.186-1.671-8.35-3.452-12.114-5.95
		c-4.893-3.227-10.115-5.896-15.029-9.079c-9.55-6.071-20.234-10.284-31.28-12.646c-5.655-1.282-11.457-0.542-17.177-1.014
		c1.2-0.63,2.378-1.408,3.759-1.611c5.276-1.041,10.58,0.384,15.829,0.948c6.915,0.805,13.303,3.666,19.845,5.852
		c4.263,1.545,8.63,2.844,12.766,4.745c3.983,1.819,8.186,3.068,12.235,4.734c10.268,4.076,21.161,7.205,32.3,6.975
		c8.947-0.247,18.103-4.164,23.473-11.506c2.778-3.583,6.202-6.624,8.827-10.339c2.077-2.674,3.315-5.846,4.915-8.8
		c1.594-2.964,5.189-3.6,7.824-5.298c4.186-2.603,8.361-5.49,11.342-9.49c2.833-3.687,5.123-7.863,6.257-12.394
		c0.246-1.386,0.636-3.172-0.619-4.197c-2.455,2.707-3.737,6.23-6.131,8.986c-3.057,3.956-7.271,6.761-11.506,9.293
		c-2.915,1.699-6.279,2.235-9.484,3.101c-2.559,0.685-5.161,1.178-7.753,1.682c-0.696-1.03-1.353-2.088-2.027-3.123
		c-1.611,1.622-3.123,3.786-5.55,4.109c-2.898,0.279-5.83,0.17-8.706-0.175c-4.756-0.849-9.638-1.622-13.972-3.868
		c4.098-1.463,8.389-2.482,12.18-4.696c4.86-2.745,10.142-5.485,13.134-10.416c2.181-3.622,5.709-6.093,9.183-8.356
		c1.731-1.194,3.907-1.041,5.907-1.123c3.161-0.066,6.323-0.4,9.397-1.178c4.148-1.057,8.515-1.43,12.427-3.309
		c5.255-2.444,10.136-5.89,13.786-10.427c3.036-3.781,6.515-7.397,8.159-12.06c1.041-2.4,1.359-5.244,3.156-7.249
		c2.526-1.578,5.594-1.945,8.246-3.282c3.797-1.633,6.137-5.2,9.117-7.89c4.865-4.476,8.411-10.208,13.61-14.35
		c3.682-3.698,7.402-7.961,8.367-13.254c-5.545,1.534-10.471,4.761-16.114,6c-9.335,1.924-18.935,2.284-28.429,1.64
		c-4.531-0.307-9.054-0.851-13.545-1.508c-2.211-0.323-4.43-0.67-6.628-1.073c-1.196-0.22-5.543-2.046-6.476-1.667
		c4.865-1.978,10.038-0.126,15.068-0.477c14.592-0.967,29.517,0.025,43.884-3.212c6.521-1.469,13.478-4.108,18.448-8.738
		c4.554-4.241,10.098-9.012,11.685-15.304c-2.488,0.553-4.865,1.457-7.238,2.345c-2.427,0.937-5.052,0.345-7.452-0.34
		c5.95-3.824,12.942-6.383,17.599-11.945c1.567-1.973,0.482-4.613-0.685-6.493c-3.298,2.526-6.476,5.315-10.284,7.063
		c-4.482,2.219-9.545,2.608-14.361,3.693c-3.271,0.74-6.63,0.893-9.967,0.827c-6.071,0.033-12.251-0.729-17.851-3.178
		c6.252-2.274,13.008-1.397,19.506-2.038c4.164-0.51,8.295-1.255,12.449-1.89c4.811-0.729,9.468-2.175,14.175-3.364
		c3.77-0.937,7.156-2.909,10.443-4.909c4.454-2.745,8.093-6.701,10.673-11.232c2.471-4.279,6.394-8.109,6.487-13.353
		c-3.945,1.83-7.408,4.548-11.451,6.175c-4.57,2.296-9.747,3.227-14.832,2.838c-5.216-0.466-10.547-0.258-15.61-1.775
		c0.915-0.712,1.737-1.841,3.014-1.885C1794.285,47.551,1795.743,47.699,1797.2,47.825z M1467.356,806.64
		c6.929-0.784,13.858-1.569,20.787-2.353c11.581-1.311,23.398-1.918,34.902-3.67c8.099-1.233,16.109-3.586,24.065-5.51
		c-9.723,7.239-21.49,11.352-33.424,13.473c-9.756,1.734-19.681,2.197-29.572,2.364c-10.627,0.18-21.786,1.894-31.792-2.603
		C1457.334,807.774,1462.345,807.207,1467.356,806.64z M1525.867,213.252c1.216-7.276,2.038-14.64,3.967-21.78
		c1.534-6.049,4-12.224,8.832-16.399c-1.036,3.923-2.882,7.561-4,11.451c-2.729,9.654-4.4,19.561-6.778,29.297
		c-0.959,4.23-1.063,8.821-3.594,12.525C1524.185,223.268,1525.155,218.26,1525.867,213.252z M1507.983,245.244
		c0.833-6.12,1.803-12.219,2.877-18.3c0.696-6.334,2.016-12.575,3.249-18.821c1.079-4.548,1.759-9.594,5.304-13.002
		c-0.51,6.367-2.104,12.575-3.112,18.87c-1.161,7.287-2.252,14.596-3.435,21.884c-0.899,4.981-2.52,9.791-4.033,14.607
		c-0.696,2.301-1.808,4.444-3.178,6.411C1505.775,252.882,1507.539,249.2,1507.983,245.244z M1450.923,281.292
		c1.523-4.772,1.901-9.83,3.551-14.569c1.841-5.326,2.964-10.997,6.06-15.796c0.937-1.638,2.52-2.707,4.071-3.698
		c-0.696,3.89-2.668,7.364-3.846,11.101c-1.211,3.83-2.652,7.572-4.022,11.347c-2.745,7.189-3.835,14.87-6.372,22.125
		c-1.408,3.918-2.674,7.912-4.685,11.577C1446.715,295.877,1448.518,288.47,1450.923,281.292z M1429.823,312.337
		c1.003-5.161,1.71-10.388,3.227-15.435c1.824-7.775,4.126-15.418,6.482-23.045c1.222-4.641,3.03-9.402,6.964-12.427
		c-0.219,3.496-0.762,7.002-2.044,10.279c-0.942,2.345-1.688,4.767-2.06,7.276c-0.778,5.293-3.534,9.999-4.86,15.144
		c-1.731,6.8-3.77,13.512-5.556,20.3c-0.597,2.696-1.255,5.408-2.537,7.879C1428.168,319.049,1429.242,315.613,1429.823,312.337z
		 M1396.115,458.636c6.027-0.038,12.065-0.016,18.092-0.197c6.224-0.214,12.383,0.794,18.547,1.474
		c6.438,0.904,12.668,2.855,18.887,4.701c2.646,0.767,5.282,1.605,7.841,2.646c3.737,1.567,7.77,2.685,10.904,5.386
		c-6.06-0.071-12.147-0.46-18.076-1.786c-7.419-1.09-14.651-3.134-22.054-4.318c-9.38-1.474-18.766-3.068-28.261-3.54
		c-4.789-0.121-9.638-0.362-14.361,0.603c-2.4,0.515-4.86,0.608-7.298,0.46C1384.768,460.51,1390.554,459.107,1396.115,458.636z
		 M1383.661,351.266c1.09,0.34,2.367,0.422,3.282,1.189c1.107,1.611,1.118,3.682,1.249,5.567c0.016,2.729,0.148,5.753-1.496,8.098
		c-0.789,1.2-2.268,1.529-3.556,1.896C1382.598,362.449,1382.565,356.767,1383.661,351.266z M1376.039,405.817
		c2.115-7.304,4.619-14.531,5.879-22.048c0.395-2.372,0.499-4.794,1.085-7.128c0.263-1.556,1.764-2.362,2.838-3.326
		c2.219,3.178,1.216,7.271,0.219,10.706c-1.786,5.128-2.866,10.465-4.74,15.566c-1.803,4.833-3.381,9.758-5.452,14.492
		c-1.699,3.797-2.8,7.917-5.441,11.221c-0.559-0.225-1.101-0.46-1.633-0.707C1370.369,418.019,1374.182,412.293,1376.039,405.817z
		 M1367.678,428.703c3.107-1.014,6.433-0.937,9.534,0.077c-0.378,0.948-0.723,1.912-1.2,2.816c-2.827,0.981-5.89,0.767-8.821,1.156
		c-4.235,0.252-8.224,1.83-12.41,2.367C1358.101,431.432,1363.103,430.117,1367.678,428.703z M1334.869,562.29
		c9.764,1.364,18.87,5.578,27.204,10.695c3.085,1.951,5.791,4.438,8.86,6.422c2.203,1.436,4.301,3.057,6.098,4.997
		c-4.296-0.794-7.479-3.929-11.194-5.945c-4.822-2.767-9.868-5.096-14.843-7.55c-5.561-2.241-11.375-3.813-17.166-5.304
		c-4.937-1.326-10.071-0.723-15.106-0.74C1323.352,561.375,1329.417,561.715,1334.869,562.29z M1299.792,513.887
		c0.351-5.046,0.921-10.098,0.575-15.155c-0.285-3.085,0.044-6.17-0.12-9.254c-0.466-6.794,0.696-13.539,1.414-20.267
		c0.471-3.693,0.641-7.758,3.003-10.832c1.726,0.904,2.394,2.981,2.537,4.811c0.06,1.348-1.32,2.181-1.567,3.419
		c0.208,1.348,0.773,2.603,1.09,3.934c0.674,2.46-0.131,4.981-0.164,7.474c-0.263,3.994,0.63,7.967,0.263,11.961
		c-0.389,4,0.055,8.043-0.597,12.027c-0.899,6.723-2.537,13.303-3.874,19.944c-0.384,1.907-1.233,3.671-2.159,5.364
		C1298.625,522.988,1299.43,518.342,1299.792,513.887z M1277.716,633.53c1.523-0.931,3.183-2.022,5.063-1.644
		c4.005,0.636,8.054,0.159,12.082,0.378c7.797,0.504,15.616,1.14,23.297,2.652c7.079,1.753,14.832,2.509,20.804,7.101
		c-4,0.493-7.715-1.299-11.556-2.027c-7.857-1.589-15.851-2.411-23.845-2.86c-5.496-0.066-10.997-0.077-16.487,0.049
		c-4.066,0.23-8.065,1.107-12.032,1.967c-3.737,0.707-6.942,3.397-10.882,3.035C1267.711,637.935,1273.19,636.401,1277.716,633.53z
		 M1279.951,657.085c2.372-0.285,4.74,0.214,7.052,0.718c-3.255,1.518-6.882,1.945-10.125,3.485
		c-2.942,1.403-6.339,0.937-9.358,2.088c-5.145,1.868-10.191,4.444-15.764,4.696c1.808-3.929,6.487-4.531,10.071-6.005
		C1267.64,659.693,1273.683,657.776,1279.951,657.085z M1249.197,497.631c0.86-3.479,0.767-7.424,3.381-10.197
		c1.244,3.572,0.367,7.287,0.175,10.936c-0.208,1.726,0.921,3.112,1.846,4.438c-0.668,1.573-1.54,3.112-1.682,4.855
		c-0.493,11.484,1.288,22.914,1.161,34.404c0.548,7.035,0.46,14.109,1.326,21.128c0.345,5.468,0.312,10.969,0.011,16.443
		c-0.022,2.082-0.723,4.038-1.364,5.994c-0.542-2.559-1.233-5.101-1.463-7.709c-0.175-1.331,0.657-2.493,1.14-3.655
		c-0.794-0.12-1.589-0.236-2.372-0.334c-0.137-3.879,0.767-7.704,0.553-11.577c-0.279-5.978,0.236-11.983-0.564-17.933
		c-0.455-4.575-1.682-9.063-1.77-13.676c-0.236-3.879-0.586-7.748-0.641-11.632C1248.249,511.997,1247.246,504.644,1249.197,497.631
		z M1227.335,584.262c2.181,5.994,3.381,12.339,3.994,18.684c0.12,4.942,0.723,10.016-0.658,14.848
		c-1.808-4.624-1.819-9.676-3.282-14.394c-0.86-3.633-2.625-6.969-3.545-10.569C1223.522,589.604,1225.554,586.76,1227.335,584.262z
		 M1164.719,640.281c2.093,3.687,2.904,7.879,4.235,11.862c2.071,6.717,3.414,13.643,5.501,20.355
		c1.414,4.383,1.655,9.024,2.882,13.451c1.622,5.687,2.592,11.534,3.435,17.38c0.614,4.805,1.512,9.709,0.537,14.536
		c-2.285-4.181-3.052-8.937-4.575-13.402c-1.474-6.005-3.622-11.802-5.222-17.763c-1.967-6.378-3.222-12.936-4.668-19.435
		c-0.805-6.109-2.093-12.147-2.559-18.295C1163.969,646.072,1163.837,643.097,1164.719,640.281z M1115.73,688.634
		c1.299-3.808,3.222-7.928,7.112-9.66c0.575,1.003-0.137,2.066-0.482,3.024c-1.792,3.759-3.205,7.715-3.89,11.835
		c-0.301,1.929-0.948,3.775-1.77,5.545C1114.826,696.124,1114.536,692.174,1115.73,688.634z M1101.463,822.589
		c1.068,2.038,1.77,4.246,2.246,6.504c1.452,6.871,3.852,13.523,4.876,20.487c0.548,4.186,2.97,7.896,3.14,12.164
		c-1.359-1.019-2.888-1.961-3.737-3.485c-0.992-1.83-1.342-3.907-1.83-5.901c-3.101-12.251-7.079-24.251-10.843-36.299
		c-1.288-5.512-3.567-10.75-4.498-16.344c-0.608-3.435-1.578-6.953-0.57-10.416c2.789,6.712,4.57,13.791,6.69,20.739
		C1098.301,814.266,1099.359,818.638,1101.463,822.589z M1091.907,782.174c-0.044,1.085-0.093,2.181-0.131,3.287
		c-2.219-1.14-4.394-2.362-6.416-3.819C1087.48,780.174,1089.907,780.859,1091.907,782.174z M1077.376,748.319
		c0.323,0.027,0.975,0.077,1.304,0.104c1.49,6.482,3.057,12.964,5.293,19.237c0.838,2.383,2.992,3.863,4.411,5.852
		c-0.433,0.981-1.211,1.742-1.874,2.575c-2.29,2.559-3.841,5.644-5.605,8.564c-0.29-0.005-0.877-0.022-1.173-0.027
		c-2.537-6.016-3.167-12.591-3.792-19.024C1075.782,759.814,1076.286,753.995,1077.376,748.319z M1044.178,848.434
		c0.181-2.674,1.304-5.227,3.731-6.564c1.057,4.334,0.74,8.832,1.342,13.238c0.778,6.783,2.312,13.512,4.789,19.884
		c1.956,5.293,3.841,10.619,6.175,15.763c2.055,4.526,3.594,9.265,5.266,13.944c1.194,3.578,3.792,6.624,4.109,10.493
		c-1.578-0.729-2.822-1.962-3.551-3.534c-2.082-4.224-5.205-7.846-7.068-12.191c-1.945-4.383-4.263-8.586-6.104-13.008
		c-1.956-5.068-4.077-10.082-5.501-15.331C1045.318,863.775,1042.633,856.159,1044.178,848.434z M1018.196,945.245
		c1.54,1.392,3.09,2.871,3.951,4.805c1.003,1.934,1.43,4.159,2.657,5.989c1.304,1.151,3.129,1.441,4.685,2.148
		c3.879,1.419,6.405,4.865,9.221,7.693c3.425,3.463,5.342,8.027,7.211,12.443c0.871,1.961,0.953,4.126,0.899,6.246
		c-2.192-3.704-3.534-7.863-6.148-11.325c-2.986-4.066-5.649-8.734-10.219-11.227c-2.35-1.386-4.937-2.323-7.265-3.742
		c-1.068-0.526-1.299-1.764-1.633-2.773C1020.722,951.957,1017.9,949.075,1018.196,945.245z M1013.769,999.686
		c2.4,3.802,3.835,8.087,5.868,12.082c1.956,4.224,4.224,8.41,5.068,13.04c0.866,4.734,1.14,9.545,1.463,14.339
		c0.351,4.263,1.123,8.701-0.394,12.843c-2.986-3.112-4.416-7.227-6.444-10.936c-3.107-5.748-5.802-11.698-8.674-17.561
		c-1.408-3.605-3.907-7.189-3.222-11.243C1008.213,1007.559,1010.103,1002.864,1013.769,999.686z M1003.38,1001.439
		c-0.636,0.871-1.923,2.049-2.931,0.975c-2.055-2.488-3.134-5.605-4.476-8.504c-2.241-5.041-3.918-10.443-3.857-16.01
		c0.099-4.361-1.83-8.438-1.885-12.783c4.318,4.016,7.106,9.287,10.569,13.994c3.474,5.057,7.994,9.517,10.115,15.396
		C1008.109,996.475,1005.473,998.705,1003.38,1001.439z M1028.803,1120.923c-1.501,5.578-3.353,11.051-4.827,16.64
		c-2.066,5.917-4.06,11.868-5.523,17.977c-1.189,4.668-2.614,9.276-4.23,13.818c-1.792,5.928-3.567,11.862-5.233,17.829
		c-1.03,2.877-1.6,5.929-2.893,8.717c-1.611,2.521-5.846,0.926-6.191-1.781c0.301-2.504,1.397-4.811,2.082-7.205
		c1.468-4.86,2.559-9.841,4.553-14.52c2.241-5.32,2.86-11.128,4.827-16.531c3.479-10.975,8.432-21.44,11.435-32.568
		c3.649-10.405,6.646-21.051,10.871-31.248c2.581-5.978,4.652-12.158,7.046-18.213c3.655-8.635,7.841-17.078,10.608-26.059
		c1.644-5.435,4.438-10.416,6.213-15.796c3.72-9.145,7.276-18.366,11.517-27.281c1.567-3.594,2.723-7.364,4.635-10.799
		c2.257-4.4,3.978-9.052,6.241-13.451c2.992-6.942,5.753-13.988,8.553-21.013c1.731-4.981,4.504-9.501,6.416-14.405
		c1.485-3.792,3.178-7.49,4.608-11.298c2.049-6.038,3.797-12.246,6.964-17.824c1.26-2.23,2.373-4.537,3.474-6.843
		c1.562,5.233-1.885,10.016-3.282,14.87c-1.419,5.068-4.181,9.61-5.671,14.651c-0.608,1.863-1.332,3.698-2.148,5.49
		c-1.715,3.616-2.74,7.55-4.893,10.964c-2.635,4.224-3.622,9.167-5.534,13.714c-1.945,4.652-3.885,9.304-5.737,13.994
		c-1.562,3.978-3.786,7.654-5.271,11.665c-2.394,6.476-5.808,12.514-8.35,18.936c-1.863,4.701-3.753,9.391-5.55,14.12
		c-1.293,3.874-2.29,7.841-3.797,11.643c-3.956,11.709-9.78,22.678-13.786,34.365c-1.896,5.37-4.022,10.657-5.791,16.07
		C1036.146,1099.927,1032.316,1110.37,1028.803,1120.923z M1057.125,1121.487c-3.386,0.931-7.002,1.277-10.087,3.074
		c-1.545,0.855-3.211,1.468-4.876,2.055c0.301-1.89,0.586-4.071,2.356-5.183c3.961-2.783,8.969-3.271,13.632-3.956
		c9.101-0.751,18.229,0.077,27.325,0.488c3.742,0.236,7.49,0.723,11.041,1.994
		C1083.568,1123.361,1070.083,1118.129,1057.125,1121.487z M1112.158,1102.316c-5.704-0.733-11.558-0.875-17.3-1.305
		c-5.075-0.38-10.15-0.759-15.225-1.139c-4.758-0.356-9.68-0.108-14.454,0.225c-5.008-0.192-9.627,1.967-14.481,2.772
		c0.329-1.589,0.099-3.813,1.912-4.548c4.164-1.731,8.772-1.825,13.199-2.263c7.267-0.436,14.752,0.502,21.997,0.944
		c7.555,0.46,15.1,1.065,22.631,1.817c3.191,0.318,6.531,0.78,9.742,0.692c2.077-0.055,4.175,0.071,6.175,0.712
		C1122.201,1103.154,1116.947,1102.688,1112.158,1102.316z M1132.82,1045.354c-6.076,2.822-12.887,2.57-19.407,3.189
		c-8.054-0.038-16.092-0.811-24.125-1.386c-3.682-0.329-7.353,0.23-11.019,0.46c0.46-2.855,2.455-5.013,4.74-6.613
		c3.863-2.882,8.29-5.063,13.024-6.076c7.117-1.764,14.498-0.981,21.747-0.915c6.394,0.608,12.832,0.11,19.232,0.608
		c1.819,0.082,3.561,0.657,5.189,1.463C1139.866,1039.831,1137.154,1043.776,1132.82,1045.354z M1157.459,1044.785
		c-3.381,1.288-6.734,3.172-10.476,2.871c2.537-3.605,5.183-7.227,6.4-11.528c5.956-0.186,11.873,0.647,17.829,0.696
		C1167.656,1040.993,1162.309,1042.648,1157.459,1044.785z M1217.09,938.777c-3.161,0.728-6.327,1.529-9.562,1.882
		c-10.853,1.182-21.811,0.326-32.701,0.32c-6.838-0.004-13.676,0.1-20.511,0.312c-3.494,0.108-6.986,0.244-10.477,0.409
		c-2.968,0.14-5.973-0.38-8.906,0.214c-1.989,0.384-4.011,0.444-6.016,0.564c0.794-1.994,1.282-4.586,3.485-5.512
		c2.712-1.145,5.737-0.679,8.597-0.657c4.411,0.258,8.728-0.899,13.112-1.129c13.593-1.19,27.094,0.192,40.667,0.16
		c9.792-0.023,19.584-0.047,29.376-0.07c1.841-0.004,12.296-1.114,12.868,0.725c0.643,2.068-10.179,1.307-11.529,1.387
		C1222.668,937.55,1219.881,938.135,1217.09,938.777z M1250.38,965.649c-4.526,2.208-9.391,3.633-13.933,5.813
		c-4.438,2.12-9.895,3.309-14.476,0.915c4.586-2.329,9.616-3.512,14.388-5.37c3.282-1.118,6.224-2.986,9.413-4.318
		c2.142-0.931,4.487-1.156,6.8-1.31C1252.813,963.123,1252.084,964.948,1250.38,965.649z M1260.292,904.59
		c-4.301,0-8.63,0.203-12.892-0.488c-5.079-0.844-10.284-0.51-15.325-1.644c-12.492-2.581-25.111-4.46-37.751-6.131
		c-7.145-1.123-14.361-1.715-21.577-2.011c-6.197,0.373-12.421,0.723-18.531,1.863c-4.592,0.811-9.326,1.458-13.49,3.704
		c-3.435,1.841-6.915,3.6-10.597,4.904c-0.203-0.263-0.603-0.8-0.805-1.063c2.104-1.912,4.312-3.792,6.986-4.854
		c3.392-1.397,6.745-2.877,10.104-4.334c6.213-2.581,12.958-3.364,19.588-4.093c7.654-0.301,15.358-0.268,22.974,0.679
		c11.484,1.474,22.58,5.085,34.086,6.493c5.282,0.647,10.493,1.912,15.824,2.175c6.876,0.471,13.649,2.131,20.569,1.983
		c1.896-0.137,3.693,0.515,5.32,1.452C1263.377,903.938,1261.898,904.644,1260.292,904.59z M1296.771,870.075
		c-7.892-0.019-15.783-0.762-23.541-2.211c-10.886-2.033-21.089-5.956-31.643-9.08c-20.645-6.105-41.366-12.434-63.151-11.372
		c-2.718,0.133-5.655,0.145-8.279,0.838c-1.296,0.342-2.549,0.719-3.911,0.853c-0.725,0.07-3.143,0.262-3.69-0.161
		c-1.37-1.061,1.305-3.112,2.301-3.456c2.322-0.803,4.986-0.858,7.394-1.513c2.593-0.705,5.25-1.174,7.921-1.451
		c5.372-0.559,10.809-0.332,16.154,0.395c12.545,1.706,25.881,5.258,37.245,10.867c5.507,2.718,11.753,3.293,17.38,5.682
		c6.432,2.86,13.479,3.813,20.245,5.589c6.624,1.836,13.544,1.501,20.344,1.852c7.577,0.826,15.137-0.11,22.721-0.625
		c-1.64,2.677-5.216,3.276-8.349,3.492C1302.87,869.982,1299.821,870.082,1296.771,870.075z M1359.301,821.4
		c-6.586,1.397-13.172,3.035-19.944,3.151c-3.939,0.005-8.197,0.778-11.808-1.233c-4.006-2.249-8.048-4.44-12.088-6.627
		c-3.61-1.954-7.024-4.38-10.642-6.384c-4.186-2.319-8.498-4.41-12.911-6.262c-4.255-1.786-8.675-2.894-12.949-4.419
		c-2.822-0.921-5.66-2.296-8.706-1.978c-2.351,0.323-4.257,1.863-6.312,2.926c-6.591,3.381-13.325,6.893-20.771,7.857
		c-3.967-0.197-7.758-1.633-11.599-2.542c-7.978-2.241-16.344-2.455-24.568-2.071c-11.583,0.619-22.602,4.838-32.82,10.093
		c-2.668,1.452-5.167,3.54-8.35,3.605c2.992-3.978,7.583-6.142,11.884-8.383c4.926-2.663,10.388-4.066,15.747-5.578
		c11.287-3.167,23.243-3.118,34.782-1.458c4.192,0.625,8.285,1.77,12.339,3.008c4.142,1.26,8.383-0.367,12.202-1.923
		c5.068-2.345,10.087-4.794,14.958-7.528c2.579-1.457,5.452-0.993,8.344-0.876c3.2,0.13,6.395,0.375,9.578,0.734
		c5.374,0.604,10.712,1.535,15.974,2.783c5.098,1.21,10.2,2.891,15.367,3.764c3.266,0.526,6.383,1.666,9.583,2.482
		c5.638,1.249,11.194,2.838,16.832,4.115c5.534,1.688,11.309,2.307,16.876,3.874c4.049,1.189,8.432,1.32,12.158,3.49
		C1368.582,818.874,1363.881,820.167,1359.301,821.4z M1412.617,834.756c-2.841,1.286-5.752,2.404-8.854,3.164
		c-6.616,1.621-14.194,2.285-20.88,0.668c-3.093-0.748-6.229-0.749-9.277-1.766c-0.502-0.168,4.801-8.712,5.262-9.429
		c2.043-3.179,2.944-6.839,4.979-9.927c0.237-0.359,4.579,0.544,5.14,0.633c1.523,0.242,2.899,0.717,4.364,1.079
		c3.729,0.919,7.717,1.209,11.503,1.906c3.603,0.663,7.194,1.385,10.772,2.168c1.735,0.379,3.467,0.773,5.195,1.18
		c1.651,0.389,4.014,0.54,5.502,1.345c1.667,0.902,0.174,1.5-1.119,2.392c-1.351,0.932-2.791,1.727-4.252,2.469
		C1418.162,832.051,1415.424,833.485,1412.617,834.756z M1434.036,766.471c6.581,0.384,13.139-0.499,19.583-1.77
		c3.764-1.057,7.441-2.433,11.112-3.775c4.449-1.644,7.747-5.517,12.454-6.564c-2.57,7.632-9.309,12.892-16.366,16.196
		c-4.608,2.131-9.72,3.309-14.81,3.079c-7.841-0.263-15.807-1.129-23.116-4.159c-2.575-0.937-4.696-2.712-6.559-4.668
		C1422.311,764.553,1428.053,766.833,1434.036,766.471z M1392.449,761.321c2.137-0.8,3.961,0.707,5.419,2.088
		c4.597,4.367,10.284,7.265,15.5,10.794c4.268,2.931,9.254,4.477,14.103,6.164c5.928,1.934,12.131,2.8,18.361,2.92
		c0.57,3.435,1.863,6.789,1.885,10.301c-0.356,1.534-2.197,1.485-3.43,1.408c-5.364-0.553-10.668-1.562-16.016-2.219
		c-5.77-0.652-11.402-2.126-17.095-3.216c-16.284-3.2-32.19-8.043-47.888-13.358c-9.83-2.855-19.577-5.972-29.33-9.046
		c-11.342-3.063-22.306-7.463-33.85-9.758c-2.997-0.548-5.885-1.523-8.706-2.636c6.115,0.071,12.175,1.063,18.256,1.682
		c4.98,0.427,9.857,1.611,14.843,2.06c6.087,0.641,12.103,1.803,18.147,2.74c6.526,0.948,12.991,2.597,19.621,2.559
		c3.715-0.06,7.419,0.263,11.128,0.471C1379.886,764.559,1386.209,762.866,1392.449,761.321z M1427.67,580.207
		c-4.734-4.141-9.489-9.303-12.974-14.531c-3.257-4.887-5.961-9.764-9.997-14.129c-7.854-8.492-17.895-14.984-28.928-18.493
		c-5.185-1.649-10.52-2.835-15.924-3.479c-5.042-0.601-10.753,0.368-15.504-1.398c12.497-4.035,26.904-3.006,38.579,2.831
		c10.726,5.362,20.415,12.782,28.417,21.712c7.058,7.877,13.359,17.071,18.808,26.123c1.797,3.118,4.969,5.413,5.863,9.024
		C1432.847,585.747,1430.513,582.695,1427.67,580.207z M1493.085,563.814c-3.205,0.192-6.252-0.975-9.117-2.263
		c-18.451-8.29-34.522-20.509-50.501-32.65c-3.764-2.86-8.18-4.756-11.693-7.95c5.501,0.751,10.471,3.37,15.632,5.265
		c11.388,4.183,21.905,10.708,32.885,15.834c8.998,4.2,18.103,8.169,27.304,11.903c2.172,0.881,4.511,1.591,6.607,2.634
		c1.386,0.69,1.527,0.34,1.019,1.72c-0.29,0.788-1.387,1.623-2.016,2.141C1500.326,562.818,1496.711,563.587,1493.085,563.814z
		 M1537.269,462.46c-5.019,1.14-10.279,0.416-15.068-1.337c-5.002-1.364-9.939-2.959-14.646-5.128
		c-5.353-2.312-10.799-4.378-16.087-6.832c-4.98-1.71-9.61-4.307-14.684-5.742c-2.531-0.751-4.981-1.77-7.172-3.238
		c-3.003-1.983-6.465-3.063-9.758-4.427c-2.488-1.041-5.2-1.189-7.846-1.348c-3.419-0.197-6.772-1.353-10.213-0.899
		c-3.835,0.493-7.649,1.14-11.402,2.049c-3.633,0.926-7.391,0.362-11.079,0.592c-4.723,0.236-9.331,1.386-14.027,1.846
		c3.233-3.468,7.923-4.893,12.438-5.781c3.216-0.652,6.515-0.268,9.753-0.658c3.32-0.411,6.197-2.23,9.315-3.293
		c2.246-0.789,4.652-0.926,7.019-0.86c3.2,0.082,6.515,0.312,9.441,1.753c5.38,2.608,11.145,4.279,16.805,6.17
		c4.498,1.6,8.586,4.115,12.838,6.246c4.498,2.225,9.402,3.414,14.087,5.172c4.718,1.786,9.605,3.074,14.328,4.865
		c5.386,2.049,11.057,3.167,16.596,4.745c4.515,1.331,9.309,1.408,13.747,3.052C1540.359,460.625,1539.083,462.071,1537.269,462.46z
		 M1581.272,439.946c5.463,0.844,10.997,0.444,16.498,0.559c7.468,0.23,14.92-1.046,22.388-0.482
		c1.227,0.225,2.29,0.959,3.381,1.556c-5.534,1.901-11.364,2.745-17.155,3.348c-9.556,0.23-19.117-0.044-28.64-0.784
		c-3.649-0.471-7.227-1.364-10.739-2.422C1571.19,438.944,1576.516,439.338,1581.272,439.946z M1563.816,432.007
		c-1.419-0.225-1.238-2.274-0.164-2.871c2.838-2.137,6.674-1.447,9.824-0.482C1570.851,430.856,1567.355,432.96,1563.816,432.007z
		 M1568.692,422.873c-1.003,0.816-1.901,1.972-3.276,2.115c-3.025,0.46-5.896-0.893-8.745-1.677
		c-3.835-1.205-7.906-1.32-11.725-2.564c-8.224-2.964-16.312-6.356-24.01-10.52c-6.63-3.271-13.369-6.46-19.325-10.887
		c9.616,2.367,18.547,6.761,27.867,10.027c5.298,1.819,10.432,4.159,15.89,5.496c4.756,1.211,9.397,2.827,14.218,3.792
		C1562.928,419.268,1565.963,420.884,1568.692,422.873z M1559.049,370.147c-4.109-1.753-7.413-4.833-11.205-7.117
		c-8.038-5.342-17.495-7.769-26.289-11.523c-5.298-2.225-10.805-4.06-16.531-4.756c-5.578-0.652-11.161-1.578-16.514-3.309
		c2.575-0.871,5.26-1.83,8.027-1.397c5.112,0.674,10.284,1.26,15.21,2.866c5.424,1.748,10.86,3.518,16.043,5.917
		c4.876,2.257,10.032,3.803,15.051,5.704c3.397,1.244,6.416,3.309,9.139,5.665C1554.632,364.548,1557.969,366.542,1559.049,370.147z
		 M1588.159,188.596c-1.364,2.811-2.69,5.961-5.638,7.457c0.23-4.087,2.986-7.265,4.679-10.816c1.77-3.578,3.474-7.211,5.863-10.432
		C1591.776,179.511,1590.121,184.125,1588.159,188.596z M1661.734,199.477c-7.359,0.526-14.81-0.866-21.522-3.896
		c-3.742-1.748-7.665-3.09-11.336-4.975c5.517-0.515,10.536,2.082,15.731,3.446c2.783,0.784,5.567,1.666,8.471,1.907
		c5.753,0.422,11.539-0.016,17.298,0.444C1668.002,198.529,1664.857,199.4,1661.734,199.477z M1668.445,187.467
		c-8.005-0.285-16.421,0.312-23.845-3.293c3.381-1.682,7.211-1.337,10.854-1.134c5.282,0.477,10.531,1.271,15.818,1.753
		c3.677,0.384,7.419,0.197,11.046,1.047C1678.001,187.971,1673.097,187.412,1668.445,187.467z"/>
</g>
</svg>
